{"glyphs":{"0":{"ha":2625,"x_min":0,"x_max":0,"o":"m 1161 358 b 954 -47 1161 225 1149 -47 b 750 358 757 -47 750 228 b 954 768 750 489 756 768 b 1161 358 1150 768 1161 485 z m 1260 358 b 954 858 1258 561 1213 858 b 650 358 694 858 650 558 b 954 -139 650 156 697 -139 b 1260 358 1211 -139 1260 156 z m 456 1357 b 528 1428 456 1424 461 1428 l 2064 1428 b 2136 1357 2131 1428 2136 1424 l 2136 -256 b 2064 -326 2136 -322 2131 -326 l 528 -326 b 456 -256 461 -326 456 -322 z m 69 1586 l 69 -635 l 69 -643 b 172 -739 69 -739 71 -739 l 2453 -739 b 2556 -643 2554 -739 2556 -739 l 2556 -635 l 2556 1586 l 2556 1594 b 2453 1690 2556 1690 2554 1690 l 172 1690 b 69 1594 71 1690 69 1690 z m 147 -685 l 461 -376 l 2128 -376 l 2481 -685 z m 122 -676 l 122 1624 l 378 1349 l 378 -268 z m 2503 -676 l 2206 -268 l 2206 1369 l 2503 1624 z m 136 1628 l 2472 1628 l 2081 1482 l 528 1482 z "},"1":{"ha":2625,"x_min":0,"x_max":0,"o":"m 908 -136 l 908 825 l 793 825 l 657 713 l 718 646 l 801 721 l 801 -136 z m 456 1357 b 528 1428 456 1424 461 1428 l 2064 1428 b 2136 1357 2131 1428 2136 1424 l 2136 -256 b 2064 -326 2136 -322 2131 -326 l 528 -326 b 456 -256 461 -326 456 -322 z m 69 1586 l 69 -635 l 69 -643 b 172 -739 69 -739 71 -739 l 2453 -739 b 2556 -643 2554 -739 2556 -739 l 2556 -635 l 2556 1586 l 2556 1594 b 2453 1690 2556 1690 2554 1690 l 172 1690 b 69 1594 71 1690 69 1690 z m 147 -685 l 461 -376 l 2128 -376 l 2481 -685 z m 122 -676 l 122 1624 l 378 1349 l 378 -268 z m 2503 -676 l 2206 -268 l 2206 1369 l 2503 1624 z m 136 1628 l 2472 1628 l 2081 1482 l 528 1482 z "},"2":{"ha":2625,"x_min":0,"x_max":0,"o":"m 649 -136 l 1208 -136 l 1208 -36 l 843 -36 l 1106 333 b 1200 569 1154 408 1200 469 b 904 842 1200 747 1071 842 b 654 767 811 842 715 800 l 654 657 b 907 744 732 707 811 744 b 1101 563 1015 744 1101 676 b 990 340 1101 486 1035 400 b 649 -136 974 318 672 -111 z m 456 1357 b 528 1428 456 1424 461 1428 l 2064 1428 b 2136 1357 2131 1428 2136 1424 l 2136 -256 b 2064 -326 2136 -322 2131 -326 l 528 -326 b 456 -256 461 -326 456 -322 z m 69 1586 l 69 -635 l 69 -643 b 172 -739 69 -739 71 -739 l 2453 -739 b 2556 -643 2554 -739 2556 -739 l 2556 -635 l 2556 1586 l 2556 1594 b 2453 1690 2556 1690 2554 1690 l 172 1690 b 69 1594 71 1690 69 1690 z m 147 -685 l 461 -376 l 2128 -376 l 2481 -685 z m 122 -676 l 122 1624 l 378 1349 l 378 -268 z m 2503 -676 l 2206 -268 l 2206 1369 l 2503 1624 z m 136 1628 l 2472 1628 l 2081 1482 l 528 1482 z "},"3":{"ha":2625,"x_min":0,"x_max":0,"o":"m 1196 146 b 1008 386 1196 254 1132 351 b 1175 601 1114 425 1175 501 b 883 846 1175 769 1036 846 b 690 806 806 846 760 828 l 690 700 b 872 749 765 726 782 749 b 1076 585 986 749 1076 706 b 876 428 1074 472 986 428 l 828 428 l 828 333 l 872 333 b 1097 146 997 333 1097 279 b 847 -53 1097 -11 990 -53 b 663 13 747 -53 725 -26 l 663 -106 b 850 -151 722 -143 768 -151 b 1196 146 1043 -151 1196 -64 z m 456 1357 b 528 1428 456 1424 461 1428 l 2064 1428 b 2136 1357 2131 1428 2136 1424 l 2136 -256 b 2064 -326 2136 -322 2131 -326 l 528 -326 b 456 -256 461 -326 456 -322 z m 69 1586 l 69 -635 l 69 -643 b 172 -739 69 -739 71 -739 l 2453 -739 b 2556 -643 2554 -739 2556 -739 l 2556 -635 l 2556 1586 l 2556 1594 b 2453 1690 2556 1690 2554 1690 l 172 1690 b 69 1594 71 1690 69 1690 z m 147 -685 l 461 -376 l 2128 -376 l 2481 -685 z m 122 -676 l 122 1624 l 378 1349 l 378 -268 z m 2503 -676 l 2206 -268 l 2206 1369 l 2503 1624 z m 136 1628 l 2472 1628 l 2081 1482 l 528 1482 z "},"4":{"ha":2625,"x_min":0,"x_max":0,"o":"m 1004 192 l 729 192 l 1004 607 z m 1239 93 l 1239 192 l 1108 192 l 1108 825 l 1056 825 l 597 135 l 597 93 l 1004 93 l 1004 -136 l 1108 -136 l 1108 93 z m 456 1357 b 528 1428 456 1424 461 1428 l 2064 1428 b 2136 1357 2131 1428 2136 1424 l 2136 -256 b 2064 -326 2136 -322 2131 -326 l 528 -326 b 456 -256 461 -326 456 -322 z m 69 1586 l 69 -635 l 69 -643 b 172 -739 69 -739 71 -739 l 2453 -739 b 2556 -643 2554 -739 2556 -739 l 2556 -635 l 2556 1586 l 2556 1594 b 2453 1690 2556 1690 2554 1690 l 172 1690 b 69 1594 71 1690 69 1690 z m 147 -685 l 461 -376 l 2128 -376 l 2481 -685 z m 122 -676 l 122 1624 l 378 1349 l 378 -268 z m 2503 -676 l 2206 -268 l 2206 1369 l 2503 1624 z m 136 1628 l 2472 1628 l 2081 1482 l 528 1482 z "},"5":{"ha":2625,"x_min":0,"x_max":0,"o":"m 1199 174 b 879 497 1196 369 1075 497 l 760 497 l 760 728 l 1133 728 l 1133 829 l 667 829 l 667 397 l 857 397 b 1099 174 999 397 1099 321 b 857 -53 1099 21 1000 -53 b 628 10 763 -53 697 -33 l 628 -111 b 860 -151 692 -133 785 -151 b 1199 174 1065 -151 1199 -39 z m 456 1357 b 528 1428 456 1424 461 1428 l 2064 1428 b 2136 1357 2131 1428 2136 1424 l 2136 -256 b 2064 -326 2136 -322 2131 -326 l 528 -326 b 456 -256 461 -326 456 -322 z m 69 1586 l 69 -635 l 69 -643 b 172 -739 69 -739 71 -739 l 2453 -739 b 2556 -643 2554 -739 2556 -739 l 2556 -635 l 2556 1586 l 2556 1594 b 2453 1690 2556 1690 2554 1690 l 172 1690 b 69 1594 71 1690 69 1690 z m 147 -685 l 461 -376 l 2128 -376 l 2481 -685 z m 122 -676 l 122 1624 l 378 1349 l 378 -268 z m 2503 -676 l 2206 -268 l 2206 1369 l 2503 1624 z m 136 1628 l 2472 1628 l 2081 1482 l 528 1482 z "},"6":{"ha":2625,"x_min":0,"x_max":0,"o":"m 756 161 b 963 394 758 293 828 394 b 1156 161 1094 394 1156 289 b 963 -54 1156 33 1094 -54 b 756 161 832 -54 756 28 z m 646 236 b 963 -146 646 35 721 -146 b 1256 161 1126 -143 1256 -22 b 969 485 1256 344 1161 485 b 774 394 881 481 818 454 b 1083 782 776 561 951 738 l 1021 843 b 646 236 858 782 646 590 z m 456 1357 b 528 1428 456 1424 461 1428 l 2064 1428 b 2136 1357 2131 1428 2136 1424 l 2136 -256 b 2064 -326 2136 -322 2131 -326 l 528 -326 b 456 -256 461 -326 456 -322 z m 69 1586 l 69 -635 l 69 -643 b 172 -739 69 -739 71 -739 l 2453 -739 b 2556 -643 2554 -739 2556 -739 l 2556 -635 l 2556 1586 l 2556 1594 b 2453 1690 2556 1690 2554 1690 l 172 1690 b 69 1594 71 1690 69 1690 z m 147 -685 l 461 -376 l 2128 -376 l 2481 -685 z m 122 -676 l 122 1624 l 378 1349 l 378 -268 z m 2503 -676 l 2206 -268 l 2206 1369 l 2503 1624 z m 136 1628 l 2472 1628 l 2081 1482 l 528 1482 z "},"7":{"ha":2625,"x_min":0,"x_max":0,"o":"m 1213 764 l 1213 813 l 647 813 l 647 710 l 1085 710 l 775 -137 l 869 -168 z m 456 1357 b 528 1428 456 1424 461 1428 l 2064 1428 b 2136 1357 2131 1428 2136 1424 l 2136 -256 b 2064 -326 2136 -322 2131 -326 l 528 -326 b 456 -256 461 -326 456 -322 z m 69 1586 l 69 -635 l 69 -643 b 172 -739 69 -739 71 -739 l 2453 -739 b 2556 -643 2554 -739 2556 -739 l 2556 -635 l 2556 1586 l 2556 1594 b 2453 1690 2556 1690 2554 1690 l 172 1690 b 69 1594 71 1690 69 1690 z m 147 -685 l 461 -376 l 2128 -376 l 2481 -685 z m 122 -676 l 122 1624 l 378 1349 l 378 -268 z m 2503 -676 l 2206 -268 l 2206 1369 l 2503 1624 z m 136 1628 l 2472 1628 l 2081 1482 l 528 1482 z "},"8":{"ha":2625,"x_min":0,"x_max":0,"o":"m 1124 136 b 921 -60 1124 8 1042 -60 b 718 136 796 -60 718 6 b 921 331 718 265 797 331 b 1124 136 1044 331 1124 260 z m 1103 588 b 921 422 1103 488 1019 422 l 918 422 b 736 588 821 422 739 497 b 921 756 744 713 814 756 b 1103 588 1015 756 1097 715 z m 1221 136 b 1047 379 1218 249 1165 338 b 1203 588 1136 419 1203 481 b 921 846 1200 754 1074 846 b 639 588 768 846 639 754 b 810 379 639 472 697 419 b 618 136 685 340 618 251 b 921 -151 618 -57 735 -151 b 1221 136 1107 -151 1221 -57 z m 456 1357 b 528 1428 456 1424 461 1428 l 2064 1428 b 2136 1357 2131 1428 2136 1424 l 2136 -256 b 2064 -326 2136 -322 2131 -326 l 528 -326 b 456 -256 461 -326 456 -322 z m 69 1586 l 69 -635 l 69 -643 b 172 -739 69 -739 71 -739 l 2453 -739 b 2556 -643 2554 -739 2556 -739 l 2556 -635 l 2556 1586 l 2556 1594 b 2453 1690 2556 1690 2554 1690 l 172 1690 b 69 1594 71 1690 69 1690 z m 147 -685 l 461 -376 l 2128 -376 l 2481 -685 z m 122 -676 l 122 1624 l 378 1349 l 378 -268 z m 2503 -676 l 2206 -268 l 2206 1369 l 2503 1624 z m 136 1628 l 2472 1628 l 2081 1482 l 528 1482 z "},"9":{"ha":2625,"x_min":0,"x_max":0,"o":"m 1124 526 b 917 293 1121 394 1051 293 b 724 526 785 293 724 399 b 917 742 724 654 785 742 b 1124 526 1047 742 1124 660 z m 1233 451 b 917 833 1233 653 1158 833 b 624 526 753 831 624 710 b 910 203 624 343 718 203 b 1103 272 999 207 1047 219 b 793 -94 1097 133 922 -33 l 856 -153 b 1233 451 1018 -92 1233 122 z m 456 1357 b 528 1428 456 1424 461 1428 l 2064 1428 b 2136 1357 2131 1428 2136 1424 l 2136 -256 b 2064 -326 2136 -322 2131 -326 l 528 -326 b 456 -256 461 -326 456 -322 z m 69 1586 l 69 -635 l 69 -643 b 172 -739 69 -739 71 -739 l 2453 -739 b 2556 -643 2554 -739 2556 -739 l 2556 -635 l 2556 1586 l 2556 1594 b 2453 1690 2556 1690 2554 1690 l 172 1690 b 69 1594 71 1690 69 1690 z m 147 -685 l 461 -376 l 2128 -376 l 2481 -685 z m 122 -676 l 122 1624 l 378 1349 l 378 -268 z m 2503 -676 l 2206 -268 l 2206 1369 l 2503 1624 z m 136 1628 l 2472 1628 l 2081 1482 l 528 1482 z "}," ":{"ha":3122,"x_min":0,"x_max":0,"o":"m 456 1357 b 528 1428 456 1424 461 1428 l 2554 1428 b 2626 1357 2621 1428 2626 1424 l 2626 -256 b 2554 -326 2626 -322 2621 -326 l 528 -326 b 456 -256 461 -326 456 -322 z m 69 1586 l 69 -635 l 69 -643 b 172 -739 69 -739 71 -739 l 2943 -739 b 3046 -643 3045 -739 3046 -739 l 3046 -635 l 3046 1586 l 3046 1594 b 2943 1690 3046 1690 3045 1690 l 172 1690 b 69 1594 71 1690 69 1690 z m 147 -685 l 461 -376 l 2618 -376 l 2971 -685 z m 122 -676 l 122 1624 l 378 1349 l 378 -268 z m 2993 -676 l 2696 -268 l 2696 1369 l 2993 1624 z m 136 1628 l 2963 1628 l 2571 1482 l 528 1482 z "},"!":{"ha":2625,"x_min":0,"x_max":0,"o":"m 1411 961 b 1353 878 1411 922 1376 899 b 1182 1031 1297 906 1182 960 b 1242 1114 1185 1071 1214 1093 b 1411 961 1292 1086 1411 1029 z m 1460 974 b 1322 1132 1460 1054 1393 1089 b 1308 1142 1318 1135 1314 1138 b 1218 1233 1247 1176 1218 1207 b 1311 1303 1218 1285 1265 1303 b 1421 1269 1358 1300 1385 1286 l 1421 1333 b 1303 1356 1388 1346 1343 1356 b 1160 1235 1229 1356 1160 1317 b 1211 1140 1163 1188 1178 1165 b 1133 1017 1163 1113 1133 1075 b 1268 860 1133 935 1196 906 b 1374 753 1310 840 1374 790 b 1276 681 1374 700 1322 681 b 1163 714 1226 683 1201 693 l 1163 650 b 1288 628 1193 640 1249 628 b 1435 756 1368 628 1435 668 b 1385 853 1431 800 1418 824 b 1460 974 1432 885 1460 915 z m 1303 -139 b 1263 -182 1281 -139 1263 -160 b 1303 -225 1263 -204 1281 -225 b 1343 -182 1325 -225 1343 -204 b 1303 -139 1343 -160 1325 -139 z m 1342 139 l 1342 417 l 1264 417 l 1264 139 l 1274 -11 l 1333 -11 z m 456 1357 b 528 1428 456 1424 461 1428 l 2064 1428 b 2136 1357 2131 1428 2136 1424 l 2136 -256 b 2064 -326 2136 -322 2131 -326 l 528 -326 b 456 -256 461 -326 456 -322 z m 69 1586 l 69 -635 l 69 -643 b 172 -739 69 -739 71 -739 l 2453 -739 b 2556 -643 2554 -739 2556 -739 l 2556 -635 l 2556 1586 l 2556 1594 b 2453 1690 2556 1690 2554 1690 l 172 1690 b 69 1594 71 1690 69 1690 z m 147 -685 l 461 -376 l 2128 -376 l 2481 -685 z m 122 -676 l 122 1624 l 378 1349 l 378 -268 z m 2503 -676 l 2206 -268 l 2206 1369 l 2503 1624 z m 136 1628 l 2472 1628 l 2081 1482 l 528 1482 z "},"\"":{"ha":2625,"x_min":0,"x_max":0,"o":"m 1101 871 b 978 1029 1101 942 1060 1007 b 1088 1172 1047 1054 1088 1106 b 896 1333 1088 1283 997 1333 b 738 1307 844 1333 783 1322 l 738 1238 b 888 1269 788 1256 828 1269 b 1022 1161 963 1269 1022 1240 b 890 1057 1021 1088 963 1057 l 822 1057 l 822 994 l 888 994 b 1036 871 969 994 1036 958 b 871 740 1036 767 965 740 b 719 783 804 740 765 751 l 719 706 b 874 675 767 689 819 675 b 1101 871 1001 675 1101 732 z m 1926 246 l 1926 306 l 1801 306 l 1842 483 l 1790 483 l 1749 306 l 1619 306 l 1663 483 l 1608 483 l 1567 306 l 1425 306 l 1425 246 l 1556 246 l 1519 99 l 1381 99 l 1381 38 l 1507 38 l 1465 -139 l 1517 -139 l 1561 38 l 1686 38 l 1646 -139 l 1699 -139 l 1740 38 l 1879 38 l 1879 99 l 1753 99 l 1786 246 z m 1733 246 l 1700 99 l 1572 99 l 1608 246 z m 1054 172 l 1054 483 l 971 483 l 971 172 z m 829 172 l 829 483 l 746 483 l 746 172 z m 456 1357 b 528 1428 456 1424 461 1428 l 2064 1428 b 2136 1357 2131 1428 2136 1424 l 2136 -256 b 2064 -326 2136 -322 2131 -326 l 528 -326 b 456 -256 461 -326 456 -322 z m 69 1586 l 69 -635 l 69 -643 b 172 -739 69 -739 71 -739 l 2453 -739 b 2556 -643 2554 -739 2556 -739 l 2556 -635 l 2556 1586 l 2556 1594 b 2453 1690 2556 1690 2554 1690 l 172 1690 b 69 1594 71 1690 69 1690 z m 147 -685 l 461 -376 l 2128 -376 l 2481 -685 z m 122 -676 l 122 1624 l 378 1349 l 378 -268 z m 2503 -676 l 2206 -268 l 2206 1369 l 2503 1624 z m 136 1628 l 2472 1628 l 2081 1482 l 528 1482 z "},"#":{"ha":2625,"x_min":0,"x_max":0,"o":"m 1101 871 b 978 1029 1101 942 1060 1007 b 1088 1172 1047 1054 1088 1106 b 896 1333 1088 1283 997 1333 b 738 1307 844 1333 783 1322 l 738 1238 b 888 1269 788 1256 828 1269 b 1022 1161 963 1269 1022 1240 b 890 1057 1021 1088 963 1057 l 822 1057 l 822 994 l 888 994 b 1036 871 969 994 1036 958 b 871 740 1036 767 965 740 b 719 783 804 740 765 751 l 719 706 b 874 675 767 689 819 675 b 1101 871 1001 675 1101 732 z m 1926 246 l 1926 306 l 1801 306 l 1842 483 l 1790 483 l 1749 306 l 1619 306 l 1663 483 l 1608 483 l 1567 306 l 1425 306 l 1425 246 l 1556 246 l 1519 99 l 1381 99 l 1381 38 l 1507 38 l 1465 -139 l 1517 -139 l 1561 38 l 1686 38 l 1646 -139 l 1699 -139 l 1740 38 l 1879 38 l 1879 99 l 1753 99 l 1786 246 z m 1733 246 l 1700 99 l 1572 99 l 1608 246 z m 1054 172 l 1054 483 l 971 483 l 971 172 z m 829 172 l 829 483 l 746 483 l 746 172 z m 456 1357 b 528 1428 456 1424 461 1428 l 2064 1428 b 2136 1357 2131 1428 2136 1424 l 2136 -256 b 2064 -326 2136 -322 2131 -326 l 528 -326 b 456 -256 461 -326 456 -322 z m 69 1586 l 69 -635 l 69 -643 b 172 -739 69 -739 71 -739 l 2453 -739 b 2556 -643 2554 -739 2556 -739 l 2556 -635 l 2556 1586 l 2556 1594 b 2453 1690 2556 1690 2554 1690 l 172 1690 b 69 1594 71 1690 69 1690 z m 147 -685 l 461 -376 l 2128 -376 l 2481 -685 z m 122 -676 l 122 1624 l 378 1349 l 378 -268 z m 2503 -676 l 2206 -268 l 2206 1369 l 2503 1624 z m 136 1628 l 2472 1628 l 2081 1482 l 528 1482 z "},"$":{"ha":2625,"x_min":0,"x_max":0,"o":"m 1946 -56 l 1860 35 b 1892 136 1878 71 1892 92 b 1863 240 1892 178 1881 204 l 1946 329 l 1908 375 l 1824 283 b 1728 315 1799 299 1758 315 b 1633 283 1692 315 1660 301 l 1549 372 l 1511 328 l 1596 238 b 1563 136 1578 207 1563 175 b 1594 33 1563 100 1579 64 l 1511 -56 l 1549 -101 l 1631 -10 b 1728 -44 1651 -25 1700 -44 b 1824 -10 1761 -44 1799 -28 l 1908 -99 z m 1846 136 b 1728 0 1846 68 1794 0 b 1610 136 1661 0 1610 67 b 1726 268 1611 206 1663 268 b 1846 136 1790 268 1846 206 z m 1029 1238 l 1029 1308 b 918 1332 1001 1321 944 1332 b 746 1119 781 1332 746 1242 l 746 1014 l 665 1014 l 665 960 l 746 960 l 746 753 l 651 753 l 651 688 l 1038 688 l 1038 753 l 814 753 l 814 960 l 971 960 l 971 1014 l 814 1014 l 814 1111 b 836 1239 814 1174 822 1214 b 926 1272 854 1260 882 1272 b 1029 1238 978 1272 997 1256 z m 858 410 l 858 511 l 829 511 l 829 410 b 658 257 733 403 658 358 b 829 107 658 161 742 122 l 829 -96 b 658 -40 746 -93 717 -83 l 658 -111 b 829 -150 700 -129 778 -150 l 829 -279 l 858 -279 l 858 -150 b 1033 11 960 -140 1033 -96 b 858 165 1033 117 957 150 l 858 356 b 938 346 888 354 914 350 b 1000 317 958 339 976 331 l 1000 385 b 863 410 924 410 888 410 z m 829 172 b 719 264 765 185 719 200 b 829 356 719 328 763 349 z m 975 3 b 858 -94 974 -64 929 -82 l 858 99 b 975 3 919 85 975 72 z m 456 1357 b 528 1428 456 1424 461 1428 l 2064 1428 b 2136 1357 2131 1428 2136 1424 l 2136 -256 b 2064 -326 2136 -322 2131 -326 l 528 -326 b 456 -256 461 -326 456 -322 z m 69 1586 l 69 -635 l 69 -643 b 172 -739 69 -739 71 -739 l 2453 -739 b 2556 -643 2554 -739 2556 -739 l 2556 -635 l 2556 1586 l 2556 1594 b 2453 1690 2556 1690 2554 1690 l 172 1690 b 69 1594 71 1690 69 1690 z m 147 -685 l 461 -376 l 2128 -376 l 2481 -685 z m 122 -676 l 122 1624 l 378 1349 l 378 -268 z m 2503 -676 l 2206 -268 l 2206 1369 l 2503 1624 z m 136 1628 l 2472 1628 l 2081 1482 l 528 1482 z "},"%":{"ha":2625,"x_min":0,"x_max":0,"o":"m 1379 339 l 1264 478 l 1183 478 l 1318 339 z m 1461 -139 l 1461 274 l 1390 274 l 1390 40 b 1267 -90 1390 -37 1350 -90 b 1169 25 1193 -90 1169 -46 l 1169 274 l 1101 274 l 1101 24 b 1251 -150 1101 -74 1147 -150 b 1390 -86 1306 -150 1360 -122 l 1390 -139 z m 1614 846 b 1486 1017 1614 925 1576 1017 b 1354 846 1397 1015 1354 928 b 1486 675 1354 763 1394 675 b 1614 846 1578 675 1614 765 z m 1490 1333 l 1438 1333 l 1068 675 l 1121 675 z m 1203 1163 b 1072 1333 1203 1244 1163 1333 b 944 1163 982 1333 944 1244 b 1072 993 946 1075 976 993 b 1203 1163 1165 993 1203 1078 z m 1567 846 b 1486 722 1565 786 1547 722 b 1401 846 1421 722 1401 789 b 1486 971 1403 906 1418 971 b 1567 846 1547 971 1567 901 z m 1157 1163 b 1072 1036 1156 1101 1138 1036 b 990 1163 1011 1039 990 1104 b 1072 1286 990 1221 1014 1286 b 1157 1163 1136 1286 1157 1225 z m 456 1357 b 528 1428 456 1424 461 1428 l 2064 1428 b 2136 1357 2131 1428 2136 1424 l 2136 -256 b 2064 -326 2136 -322 2131 -326 l 528 -326 b 456 -256 461 -326 456 -322 z m 69 1586 l 69 -635 l 69 -643 b 172 -739 69 -739 71 -739 l 2453 -739 b 2556 -643 2554 -739 2556 -739 l 2556 -635 l 2556 1586 l 2556 1594 b 2453 1690 2556 1690 2554 1690 l 172 1690 b 69 1594 71 1690 69 1690 z m 147 -685 l 461 -376 l 2128 -376 l 2481 -685 z m 122 -676 l 122 1624 l 378 1349 l 378 -268 z m 2503 -676 l 2206 -268 l 2206 1369 l 2503 1624 z m 136 1628 l 2472 1628 l 2081 1482 l 528 1482 z "},"&":{"ha":2625,"x_min":0,"x_max":0,"o":"m 1331 694 l 1331 1328 l 1254 1328 l 1165 1254 l 1206 1210 l 1260 1260 l 1260 694 z m 1403 -11 b 1260 -71 1358 -50 1318 -71 b 1101 81 1171 -71 1101 -14 b 1181 226 1101 144 1133 185 z m 1589 -119 l 1476 0 b 1561 218 1518 67 1554 142 l 1497 218 b 1442 43 1494 144 1483 101 l 1231 268 b 1181 331 1206 294 1189 317 b 1167 382 1172 347 1167 364 b 1197 442 1167 404 1175 424 b 1271 468 1215 460 1240 468 b 1361 440 1319 468 1325 465 l 1392 496 b 1263 526 1358 513 1307 526 b 1150 485 1217 526 1178 513 b 1110 382 1121 457 1110 418 b 1118 325 1110 361 1113 343 b 1149 269 1125 307 1133 290 b 1042 75 1085 214 1042 153 b 1251 -132 1042 -50 1131 -132 b 1438 -56 1321 -132 1385 -100 l 1499 -119 z m 456 1357 b 528 1428 456 1424 461 1428 l 2064 1428 b 2136 1357 2131 1428 2136 1424 l 2136 -256 b 2064 -326 2136 -322 2131 -326 l 528 -326 b 456 -256 461 -326 456 -322 z m 69 1586 l 69 -635 l 69 -643 b 172 -739 69 -739 71 -739 l 2453 -739 b 2556 -643 2554 -739 2556 -739 l 2556 -635 l 2556 1586 l 2556 1594 b 2453 1690 2556 1690 2554 1690 l 172 1690 b 69 1594 71 1690 69 1690 z m 147 -685 l 461 -376 l 2128 -376 l 2481 -685 z m 122 -676 l 122 1624 l 378 1349 l 378 -268 z m 2503 -676 l 2206 -268 l 2206 1369 l 2503 1624 z m 136 1628 l 2472 1628 l 2081 1482 l 528 1482 z "},"'":{"ha":2625,"x_min":0,"x_max":0,"o":"m 915 915 l 733 915 l 915 1190 z m 1069 851 l 1069 915 l 983 915 l 983 1333 l 949 1333 l 647 878 l 647 851 l 915 851 l 915 700 l 983 700 l 983 851 z m 1665 19 l 1665 126 b 1585 265 1665 219 1644 246 b 1665 404 1654 292 1665 331 l 1665 511 b 1765 614 1667 599 1688 614 l 1788 614 l 1788 667 l 1768 667 b 1638 636 1703 665 1660 657 b 1607 513 1617 617 1607 574 l 1607 410 b 1497 293 1607 319 1571 293 l 1478 293 l 1478 239 l 1497 239 b 1607 121 1575 239 1607 211 l 1607 18 b 1636 -104 1607 -43 1615 -83 b 1768 -136 1660 -125 1703 -136 l 1788 -136 l 1788 -82 l 1765 -82 b 1665 19 1692 -81 1665 -69 z m 996 596 l 900 596 l 900 428 l 921 285 l 974 285 b 996 596 997 385 994 486 z m 456 1357 b 528 1428 456 1424 461 1428 l 2064 1428 b 2136 1357 2131 1428 2136 1424 l 2136 -256 b 2064 -326 2136 -322 2131 -326 l 528 -326 b 456 -256 461 -326 456 -322 z m 69 1586 l 69 -635 l 69 -643 b 172 -739 69 -739 71 -739 l 2453 -739 b 2556 -643 2554 -739 2556 -739 l 2556 -635 l 2556 1586 l 2556 1594 b 2453 1690 2556 1690 2554 1690 l 172 1690 b 69 1594 71 1690 69 1690 z m 147 -685 l 461 -376 l 2128 -376 l 2481 -685 z m 122 -676 l 122 1624 l 378 1349 l 378 -268 z m 2503 -676 l 2206 -268 l 2206 1369 l 2503 1624 z m 136 1628 l 2472 1628 l 2081 1482 l 528 1482 z "},"(":{"ha":2625,"x_min":0,"x_max":0,"o":"m 1231 900 b 1019 1114 1229 1029 1149 1114 l 942 1114 l 942 1267 l 1188 1267 l 1188 1333 l 879 1333 l 879 1049 l 1006 1049 b 1165 900 1099 1049 1165 997 b 1006 751 1165 799 1100 751 b 854 793 943 751 900 765 l 854 713 b 1007 686 896 697 957 686 b 1231 900 1143 686 1231 760 z m 1071 -204 b 960 183 999 -74 960 33 b 1071 569 961 336 997 436 l 1018 569 b 894 183 947 453 894 321 b 1018 -204 894 46 946 -86 z m 1817 -199 l 1817 -146 l 1717 -146 l 1717 522 l 1817 522 l 1817 576 l 1651 576 l 1651 -199 z m 456 1357 b 528 1428 456 1424 461 1428 l 2064 1428 b 2136 1357 2131 1428 2136 1424 l 2136 -256 b 2064 -326 2136 -322 2131 -326 l 528 -326 b 456 -256 461 -326 456 -322 z m 69 1586 l 69 -635 l 69 -643 b 172 -739 69 -739 71 -739 l 2453 -739 b 2556 -643 2554 -739 2556 -739 l 2556 -635 l 2556 1586 l 2556 1594 b 2453 1690 2556 1690 2554 1690 l 172 1690 b 69 1594 71 1690 69 1690 z m 147 -685 l 461 -376 l 2128 -376 l 2481 -685 z m 122 -676 l 122 1624 l 378 1349 l 378 -268 z m 2503 -676 l 2206 -268 l 2206 1369 l 2503 1624 z m 136 1628 l 2472 1628 l 2081 1482 l 528 1482 z "},")":{"ha":2625,"x_min":0,"x_max":0,"o":"m 929 1261 b 1014 1175 976 1261 1014 1222 b 929 1089 1014 1128 976 1089 b 844 1175 882 1089 844 1128 b 929 1261 844 1222 882 1261 z m 929 1332 b 774 1176 843 1332 774 1263 b 929 1021 774 1090 843 1021 b 1085 1176 1015 1021 1085 1090 b 929 1332 1085 1263 1015 1332 z m 894 -225 l 947 -225 b 1071 163 1019 -107 1071 25 b 947 549 1071 300 1018 432 l 894 549 b 1006 163 968 415 1004 315 b 894 -225 1006 13 967 -94 z m 1651 -219 l 1817 -219 l 1817 556 l 1651 556 l 1651 501 l 1751 501 l 1751 -167 l 1651 -167 z m 456 1357 b 528 1428 456 1424 461 1428 l 2064 1428 b 2136 1357 2131 1428 2136 1424 l 2136 -256 b 2064 -326 2136 -322 2131 -326 l 528 -326 b 456 -256 461 -326 456 -322 z m 69 1586 l 69 -635 l 69 -643 b 172 -739 69 -739 71 -739 l 2453 -739 b 2556 -643 2554 -739 2556 -739 l 2556 -635 l 2556 1586 l 2556 1594 b 2453 1690 2556 1690 2554 1690 l 172 1690 b 69 1594 71 1690 69 1690 z m 147 -685 l 461 -376 l 2128 -376 l 2481 -685 z m 122 -676 l 122 1624 l 378 1349 l 378 -268 z m 2503 -676 l 2206 -268 l 2206 1369 l 2503 1624 z m 136 1628 l 2472 1628 l 2081 1482 l 528 1482 z "},"*":{"ha":2625,"x_min":0,"x_max":0,"o":"m 1514 925 l 1514 988 b 1495 974 1501 975 1504 974 b 1489 974 1493 974 1491 974 b 1458 1015 1465 974 1458 992 l 1458 1333 l 1393 1333 l 1393 1092 b 1278 968 1393 1015 1358 968 b 1172 1076 1207 968 1172 1007 l 1172 1333 l 1104 1333 l 1104 625 l 1172 625 l 1172 960 b 1283 910 1193 932 1238 910 b 1394 963 1333 910 1372 935 b 1458 910 1404 933 1425 910 b 1514 925 1479 910 1501 917 z m 1571 -49 l 1349 79 l 1571 207 l 1546 267 l 1333 132 l 1333 379 l 1278 379 l 1278 132 l 1067 267 l 1040 207 l 1258 81 l 1040 -49 l 1067 -106 l 1278 24 l 1278 -222 l 1333 -222 l 1333 24 l 1546 -106 z m 456 1357 b 528 1428 456 1424 461 1428 l 2064 1428 b 2136 1357 2131 1428 2136 1424 l 2136 -256 b 2064 -326 2136 -322 2131 -326 l 528 -326 b 456 -256 461 -326 456 -322 z m 69 1586 l 69 -635 l 69 -643 b 172 -739 69 -739 71 -739 l 2453 -739 b 2556 -643 2554 -739 2556 -739 l 2556 -635 l 2556 1586 l 2556 1594 b 2453 1690 2556 1690 2554 1690 l 172 1690 b 69 1594 71 1690 69 1690 z m 147 -685 l 461 -376 l 2128 -376 l 2481 -685 z m 122 -676 l 122 1624 l 378 1349 l 378 -268 z m 2503 -676 l 2206 -268 l 2206 1369 l 2503 1624 z m 136 1628 l 2472 1628 l 2081 1482 l 528 1482 z "},"+":{"ha":2625,"x_min":0,"x_max":0,"o":"m 1746 428 l 1746 321 b 1763 229 1746 276 1750 247 b 1828 182 1772 208 1789 194 b 1746 43 1763 161 1746 133 l 1746 -64 b 1647 -165 1746 -149 1724 -165 l 1625 -165 l 1625 -219 l 1644 -219 b 1772 -187 1708 -219 1750 -208 b 1804 -65 1793 -167 1804 -126 l 1804 38 b 1914 156 1804 132 1838 156 l 1932 156 l 1932 210 l 1914 210 b 1828 235 1872 210 1844 218 b 1804 326 1813 253 1804 285 l 1804 429 b 1772 553 1804 490 1793 533 b 1644 583 1750 574 1708 583 l 1625 583 l 1625 531 l 1647 531 b 1746 428 1722 529 1746 514 z m 1188 226 l 1188 283 l 711 283 l 711 226 z m 1188 69 l 1188 128 l 711 128 l 711 69 z m 1197 964 l 1197 1021 l 988 1021 l 988 1229 l 935 1229 l 935 1021 l 722 1021 l 722 964 l 935 964 l 935 756 l 988 756 l 988 964 z m 456 1357 b 528 1428 456 1424 461 1428 l 2064 1428 b 2136 1357 2131 1428 2136 1424 l 2136 -256 b 2064 -326 2136 -322 2131 -326 l 528 -326 b 456 -256 461 -326 456 -322 z m 69 1586 l 69 -635 l 69 -643 b 172 -739 69 -739 71 -739 l 2453 -739 b 2556 -643 2554 -739 2556 -739 l 2556 -635 l 2556 1586 l 2556 1594 b 2453 1690 2556 1690 2554 1690 l 172 1690 b 69 1594 71 1690 69 1690 z m 147 -685 l 461 -376 l 2128 -376 l 2481 -685 z m 122 -676 l 122 1624 l 378 1349 l 378 -268 z m 2503 -676 l 2206 -268 l 2206 1369 l 2503 1624 z m 136 1628 l 2472 1628 l 2081 1482 l 528 1482 z "},",":{"ha":2625,"x_min":0,"x_max":0,"o":"m 1310 767 b 1269 724 1288 767 1269 746 b 1310 681 1269 701 1288 681 b 1350 724 1332 681 1350 701 b 1310 767 1350 746 1332 767 z m 1461 1186 b 1304 1333 1460 1282 1397 1333 b 1160 1286 1242 1333 1210 1315 l 1188 1229 b 1290 1271 1215 1246 1233 1271 b 1396 1181 1347 1271 1396 1242 b 1349 1094 1393 1144 1365 1110 l 1313 1057 b 1243 956 1281 1024 1243 992 b 1254 922 1243 944 1247 933 l 1296 857 l 1317 856 l 1317 910 b 1363 1025 1317 976 1322 979 l 1399 1063 b 1461 1186 1435 1100 1461 1131 z m 1218 86 b 1300 6 1218 42 1254 6 b 1218 -115 1300 -37 1232 -112 b 1382 86 1264 -115 1382 -29 b 1300 167 1382 131 1346 167 b 1218 86 1254 167 1218 131 z m 456 1357 b 528 1428 456 1424 461 1428 l 2064 1428 b 2136 1357 2131 1428 2136 1424 l 2136 -256 b 2064 -326 2136 -322 2131 -326 l 528 -326 b 456 -256 461 -326 456 -322 z m 69 1586 l 69 -635 l 69 -643 b 172 -739 69 -739 71 -739 l 2453 -739 b 2556 -643 2554 -739 2556 -739 l 2556 -635 l 2556 1586 l 2556 1594 b 2453 1690 2556 1690 2554 1690 l 172 1690 b 69 1594 71 1690 69 1690 z m 147 -685 l 461 -376 l 2128 -376 l 2481 -685 z m 122 -676 l 122 1624 l 378 1349 l 378 -268 z m 2503 -676 l 2206 -268 l 2206 1369 l 2503 1624 z m 136 1628 l 2472 1628 l 2081 1482 l 528 1482 z "},"-":{"ha":2625,"x_min":0,"x_max":0,"o":"m 719 972 l 719 963 b 928 676 719 775 769 676 b 1121 879 1036 678 1121 758 b 932 1093 1121 1000 1058 1093 b 789 1031 874 1090 832 1081 b 1040 1276 792 1208 915 1276 l 1046 1276 l 1046 1333 b 719 972 890 1332 719 1251 z m 792 879 b 928 1033 793 967 839 1033 b 1056 879 1015 1033 1056 964 b 928 736 1056 794 1015 736 b 792 879 842 736 792 792 z m 1729 -136 l 1729 733 l 1663 733 l 1663 -136 z m 1054 175 l 1054 267 l 738 267 l 738 175 z m 456 1357 b 528 1428 456 1424 461 1428 l 2064 1428 b 2136 1357 2131 1428 2136 1424 l 2136 -256 b 2064 -326 2136 -322 2131 -326 l 528 -326 b 456 -256 461 -326 456 -322 z m 69 1586 l 69 -635 l 69 -643 b 172 -739 69 -739 71 -739 l 2453 -739 b 2556 -643 2554 -739 2556 -739 l 2556 -635 l 2556 1586 l 2556 1594 b 2453 1690 2556 1690 2554 1690 l 172 1690 b 69 1594 71 1690 69 1690 z m 147 -685 l 461 -376 l 2128 -376 l 2481 -685 z m 122 -676 l 122 1624 l 378 1349 l 378 -268 z m 2503 -676 l 2206 -268 l 2206 1369 l 2503 1624 z m 136 1628 l 2472 1628 l 2081 1482 l 528 1482 z "},".":{"ha":2625,"x_min":0,"x_max":0,"o":"m 1222 1115 b 1304 1035 1222 1071 1259 1035 b 1386 1115 1349 1035 1386 1071 b 1304 1196 1386 1160 1349 1196 b 1222 1115 1259 1196 1222 1160 z m 1226 394 b 1308 314 1226 350 1263 314 b 1390 394 1354 314 1390 350 b 1308 475 1390 439 1354 475 b 1226 394 1263 475 1226 439 z m 1226 -22 b 1308 -103 1226 -67 1263 -103 b 1226 -224 1308 -145 1240 -221 b 1390 -22 1271 -224 1390 -137 b 1308 58 1390 22 1354 58 b 1226 -22 1263 58 1226 22 z m 456 1357 b 528 1428 456 1424 461 1428 l 2064 1428 b 2136 1357 2131 1428 2136 1424 l 2136 -256 b 2064 -326 2136 -322 2131 -326 l 528 -326 b 456 -256 461 -326 456 -322 z m 69 1586 l 69 -635 l 69 -643 b 172 -739 69 -739 71 -739 l 2453 -739 b 2556 -643 2554 -739 2556 -739 l 2556 -635 l 2556 1586 l 2556 1594 b 2453 1690 2556 1690 2554 1690 l 172 1690 b 69 1594 71 1690 69 1690 z m 147 -685 l 461 -376 l 2128 -376 l 2481 -685 z m 122 -676 l 122 1624 l 378 1349 l 378 -268 z m 2503 -676 l 2206 -268 l 2206 1369 l 2503 1624 z m 136 1628 l 2472 1628 l 2081 1482 l 528 1482 z "},"/":{"ha":2625,"x_min":0,"x_max":0,"o":"m 1479 1333 l 1392 1333 l 1085 604 l 1171 604 z m 1218 -99 b 1300 -179 1218 -143 1255 -179 b 1382 -99 1345 -179 1382 -143 b 1300 -18 1382 -54 1345 -18 b 1218 -99 1255 -18 1218 -54 z m 1218 315 b 1300 235 1218 271 1255 235 b 1382 315 1345 235 1382 271 b 1300 396 1382 360 1345 396 b 1218 315 1255 396 1218 360 z m 456 1357 b 528 1428 456 1424 461 1428 l 2064 1428 b 2136 1357 2131 1428 2136 1424 l 2136 -256 b 2064 -326 2136 -322 2131 -326 l 528 -326 b 456 -256 461 -326 456 -322 z m 69 1586 l 69 -635 l 69 -643 b 172 -739 69 -739 71 -739 l 2453 -739 b 2556 -643 2554 -739 2556 -739 l 2556 -635 l 2556 1586 l 2556 1594 b 2453 1690 2556 1690 2554 1690 l 172 1690 b 69 1594 71 1690 69 1690 z m 147 -685 l 461 -376 l 2128 -376 l 2481 -685 z m 122 -676 l 122 1624 l 378 1349 l 378 -268 z m 2503 -676 l 2206 -268 l 2206 1369 l 2503 1624 z m 136 1628 l 2472 1628 l 2081 1482 l 528 1482 z "},":":{"ha":2625,"x_min":0,"x_max":0,"o":"m 1479 1333 l 1392 1333 l 1085 604 l 1171 604 z m 1218 -99 b 1300 -179 1218 -143 1255 -179 b 1382 -99 1345 -179 1382 -143 b 1300 -18 1382 -54 1345 -18 b 1218 -99 1255 -18 1218 -54 z m 1218 315 b 1300 235 1218 271 1255 235 b 1382 315 1345 235 1382 271 b 1300 396 1382 360 1345 396 b 1218 315 1255 396 1218 360 z m 456 1357 b 528 1428 456 1424 461 1428 l 2064 1428 b 2136 1357 2131 1428 2136 1424 l 2136 -256 b 2064 -326 2136 -322 2131 -326 l 528 -326 b 456 -256 461 -326 456 -322 z m 69 1586 l 69 -635 l 69 -643 b 172 -739 69 -739 71 -739 l 2453 -739 b 2556 -643 2554 -739 2556 -739 l 2556 -635 l 2556 1586 l 2556 1594 b 2453 1690 2556 1690 2554 1690 l 172 1690 b 69 1594 71 1690 69 1690 z m 147 -685 l 461 -376 l 2128 -376 l 2481 -685 z m 122 -676 l 122 1624 l 378 1349 l 378 -268 z m 2503 -676 l 2206 -268 l 2206 1369 l 2503 1624 z m 136 1628 l 2472 1628 l 2081 1482 l 528 1482 z "},";":{"ha":2625,"x_min":0,"x_max":0,"o":"m 1222 1115 b 1304 1035 1222 1071 1259 1035 b 1386 1115 1349 1035 1386 1071 b 1304 1196 1386 1160 1349 1196 b 1222 1115 1259 1196 1222 1160 z m 1226 394 b 1308 314 1226 350 1263 314 b 1390 394 1354 314 1390 350 b 1308 475 1390 439 1354 475 b 1226 394 1263 475 1226 439 z m 1226 -22 b 1308 -103 1226 -67 1263 -103 b 1226 -224 1308 -145 1240 -221 b 1390 -22 1271 -224 1390 -137 b 1308 58 1390 22 1354 58 b 1226 -22 1263 58 1226 22 z m 456 1357 b 528 1428 456 1424 461 1428 l 2064 1428 b 2136 1357 2131 1428 2136 1424 l 2136 -256 b 2064 -326 2136 -322 2131 -326 l 528 -326 b 456 -256 461 -326 456 -322 z m 69 1586 l 69 -635 l 69 -643 b 172 -739 69 -739 71 -739 l 2453 -739 b 2556 -643 2554 -739 2556 -739 l 2556 -635 l 2556 1586 l 2556 1594 b 2453 1690 2556 1690 2554 1690 l 172 1690 b 69 1594 71 1690 69 1690 z m 147 -685 l 461 -376 l 2128 -376 l 2481 -685 z m 122 -676 l 122 1624 l 378 1349 l 378 -268 z m 2503 -676 l 2206 -268 l 2206 1369 l 2503 1624 z m 136 1628 l 2472 1628 l 2081 1482 l 528 1482 z "},"<":{"ha":2625,"x_min":0,"x_max":0,"o":"m 1638 -140 l 1638 -46 l 1039 165 l 1638 378 l 1638 472 l 918 208 l 918 122 z m 1638 981 l 1638 1067 l 917 1331 l 917 1236 l 1515 1024 l 917 813 l 917 718 z m 456 1357 b 528 1428 456 1424 461 1428 l 2064 1428 b 2136 1357 2131 1428 2136 1424 l 2136 -256 b 2064 -326 2136 -322 2131 -326 l 528 -326 b 456 -256 461 -326 456 -322 z m 69 1586 l 69 -635 l 69 -643 b 172 -739 69 -739 71 -739 l 2453 -739 b 2556 -643 2554 -739 2556 -739 l 2556 -635 l 2556 1586 l 2556 1594 b 2453 1690 2556 1690 2554 1690 l 172 1690 b 69 1594 71 1690 69 1690 z m 147 -685 l 461 -376 l 2128 -376 l 2481 -685 z m 122 -676 l 122 1624 l 378 1349 l 378 -268 z m 2503 -676 l 2206 -268 l 2206 1369 l 2503 1624 z m 136 1628 l 2472 1628 l 2081 1482 l 528 1482 z "},"=":{"ha":2625,"x_min":0,"x_max":0,"o":"m 1746 428 l 1746 321 b 1763 229 1746 276 1750 247 b 1828 182 1772 208 1789 194 b 1746 43 1763 161 1746 133 l 1746 -64 b 1647 -165 1746 -149 1724 -165 l 1625 -165 l 1625 -219 l 1644 -219 b 1772 -187 1708 -219 1750 -208 b 1804 -65 1793 -167 1804 -126 l 1804 38 b 1914 156 1804 132 1838 156 l 1932 156 l 1932 210 l 1914 210 b 1828 235 1872 210 1844 218 b 1804 326 1813 253 1804 285 l 1804 429 b 1772 553 1804 490 1793 533 b 1644 583 1750 574 1708 583 l 1625 583 l 1625 531 l 1647 531 b 1746 428 1722 529 1746 514 z m 1188 226 l 1188 283 l 711 283 l 711 226 z m 1188 69 l 1188 128 l 711 128 l 711 69 z m 1197 964 l 1197 1021 l 988 1021 l 988 1229 l 935 1229 l 935 1021 l 722 1021 l 722 964 l 935 964 l 935 756 l 988 756 l 988 964 z m 456 1357 b 528 1428 456 1424 461 1428 l 2064 1428 b 2136 1357 2131 1428 2136 1424 l 2136 -256 b 2064 -326 2136 -322 2131 -326 l 528 -326 b 456 -256 461 -326 456 -322 z m 69 1586 l 69 -635 l 69 -643 b 172 -739 69 -739 71 -739 l 2453 -739 b 2556 -643 2554 -739 2556 -739 l 2556 -635 l 2556 1586 l 2556 1594 b 2453 1690 2556 1690 2554 1690 l 172 1690 b 69 1594 71 1690 69 1690 z m 147 -685 l 461 -376 l 2128 -376 l 2481 -685 z m 122 -676 l 122 1624 l 378 1349 l 378 -268 z m 2503 -676 l 2206 -268 l 2206 1369 l 2503 1624 z m 136 1628 l 2472 1628 l 2081 1482 l 528 1482 z "},">":{"ha":2625,"x_min":0,"x_max":0,"o":"m 1638 -140 l 1638 -46 l 1039 165 l 1638 378 l 1638 472 l 918 208 l 918 122 z m 1638 981 l 1638 1067 l 917 1331 l 917 1236 l 1515 1024 l 917 813 l 917 718 z m 456 1357 b 528 1428 456 1424 461 1428 l 2064 1428 b 2136 1357 2131 1428 2136 1424 l 2136 -256 b 2064 -326 2136 -322 2131 -326 l 528 -326 b 456 -256 461 -326 456 -322 z m 69 1586 l 69 -635 l 69 -643 b 172 -739 69 -739 71 -739 l 2453 -739 b 2556 -643 2554 -739 2556 -739 l 2556 -635 l 2556 1586 l 2556 1594 b 2453 1690 2556 1690 2554 1690 l 172 1690 b 69 1594 71 1690 69 1690 z m 147 -685 l 461 -376 l 2128 -376 l 2481 -685 z m 122 -676 l 122 1624 l 378 1349 l 378 -268 z m 2503 -676 l 2206 -268 l 2206 1369 l 2503 1624 z m 136 1628 l 2472 1628 l 2081 1482 l 528 1482 z "},"?":{"ha":2625,"x_min":0,"x_max":0,"o":"m 1310 767 b 1269 724 1288 767 1269 746 b 1310 681 1269 701 1288 681 b 1350 724 1332 681 1350 701 b 1310 767 1350 746 1332 767 z m 1461 1186 b 1304 1333 1460 1282 1397 1333 b 1160 1286 1242 1333 1210 1315 l 1188 1229 b 1290 1271 1215 1246 1233 1271 b 1396 1181 1347 1271 1396 1242 b 1349 1094 1393 1144 1365 1110 l 1313 1057 b 1243 956 1281 1024 1243 992 b 1254 922 1243 944 1247 933 l 1296 857 l 1317 856 l 1317 910 b 1363 1025 1317 976 1322 979 l 1399 1063 b 1461 1186 1435 1100 1461 1131 z m 1218 86 b 1300 6 1218 42 1254 6 b 1218 -115 1300 -37 1232 -112 b 1382 86 1264 -115 1382 -29 b 1300 167 1382 131 1346 167 b 1218 86 1254 167 1218 131 z m 456 1357 b 528 1428 456 1424 461 1428 l 2064 1428 b 2136 1357 2131 1428 2136 1424 l 2136 -256 b 2064 -326 2136 -322 2131 -326 l 528 -326 b 456 -256 461 -326 456 -322 z m 69 1586 l 69 -635 l 69 -643 b 172 -739 69 -739 71 -739 l 2453 -739 b 2556 -643 2554 -739 2556 -739 l 2556 -635 l 2556 1586 l 2556 1594 b 2453 1690 2556 1690 2554 1690 l 172 1690 b 69 1594 71 1690 69 1690 z m 147 -685 l 461 -376 l 2128 -376 l 2481 -685 z m 122 -676 l 122 1624 l 378 1349 l 378 -268 z m 2503 -676 l 2206 -268 l 2206 1369 l 2503 1624 z m 136 1628 l 2472 1628 l 2081 1482 l 528 1482 z "},"@":{"ha":2625,"x_min":0,"x_max":0,"o":"m 1086 1001 b 949 735 1086 914 1076 735 b 814 1001 818 735 814 915 b 949 1272 814 1088 818 1272 b 1086 1001 1078 1272 1086 1085 z m 1150 1001 b 949 1332 1149 1135 1119 1332 b 749 1001 778 1332 749 1133 b 949 674 749 868 779 674 b 1150 1001 1118 674 1150 868 z m 1039 339 l 924 478 l 843 478 l 978 339 z m 1113 -139 l 1113 96 b 938 283 1113 215 1061 283 b 799 256 893 283 838 269 l 799 188 b 932 225 840 211 875 225 b 1049 122 999 224 1049 192 l 953 122 b 769 -18 856 122 769 89 b 904 -150 771 -103 819 -150 b 1049 -86 963 -150 1017 -128 l 1049 -139 z m 1049 53 b 924 -93 1049 -28 1011 -93 b 832 -14 874 -93 832 -69 b 981 65 832 65 910 65 l 1049 65 z m 2011 368 b 1675 700 2011 540 1883 700 b 1313 318 1432 700 1313 511 b 1669 -64 1313 88 1474 -64 b 1894 21 1763 -62 1824 -32 l 1861 71 b 1669 -1 1806 25 1744 -1 b 1361 318 1504 -1 1361 119 b 1676 654 1361 486 1486 654 b 1960 365 1844 653 1960 508 b 1832 188 1958 276 1925 203 l 1832 500 l 1774 500 l 1774 451 b 1649 507 1751 497 1697 507 b 1497 315 1544 506 1497 411 b 1649 126 1497 222 1546 126 b 1774 182 1699 126 1749 150 l 1774 125 b 2011 368 1921 126 2011 219 z m 1774 315 b 1664 186 1772 246 1738 186 b 1556 315 1592 186 1556 246 b 1663 444 1557 386 1589 444 b 1774 315 1707 444 1774 421 z m 456 1357 b 528 1428 456 1424 461 1428 l 2064 1428 b 2136 1357 2131 1428 2136 1424 l 2136 -256 b 2064 -326 2136 -322 2131 -326 l 528 -326 b 456 -256 461 -326 456 -322 z m 69 1586 l 69 -635 l 69 -643 b 172 -739 69 -739 71 -739 l 2453 -739 b 2556 -643 2554 -739 2556 -739 l 2556 -635 l 2556 1586 l 2556 1594 b 2453 1690 2556 1690 2554 1690 l 172 1690 b 69 1594 71 1690 69 1690 z m 147 -685 l 461 -376 l 2128 -376 l 2481 -685 z m 122 -676 l 122 1624 l 378 1349 l 378 -268 z m 2503 -676 l 2206 -268 l 2206 1369 l 2503 1624 z m 136 1628 l 2472 1628 l 2081 1482 l 528 1482 z "},"A":{"ha":2625,"x_min":0,"x_max":0,"o":"m 1253 214 l 863 214 l 1060 708 z m 1501 -136 l 1125 825 l 988 825 l 614 -136 l 735 -136 l 825 114 l 1290 114 l 1379 -136 z m 456 1357 b 528 1428 456 1424 461 1428 l 2064 1428 b 2136 1357 2131 1428 2136 1424 l 2136 -256 b 2064 -326 2136 -322 2131 -326 l 528 -326 b 456 -256 461 -326 456 -322 z m 69 1586 l 69 -635 l 69 -643 b 172 -739 69 -739 71 -739 l 2453 -739 b 2556 -643 2554 -739 2556 -739 l 2556 -635 l 2556 1586 l 2556 1594 b 2453 1690 2556 1690 2554 1690 l 172 1690 b 69 1594 71 1690 69 1690 z m 147 -685 l 461 -376 l 2128 -376 l 2481 -685 z m 122 -676 l 122 1624 l 378 1349 l 378 -268 z m 2503 -676 l 2206 -268 l 2206 1369 l 2503 1624 z m 136 1628 l 2472 1628 l 2081 1482 l 528 1482 z "},"B":{"ha":2625,"x_min":0,"x_max":0,"o":"m 1288 144 b 1058 -40 1288 8 1201 -40 l 831 -40 l 831 326 l 1058 326 b 1288 144 1201 326 1288 283 z m 1258 576 b 1043 421 1256 468 1165 421 l 831 421 l 831 729 l 1043 729 b 1258 576 1161 726 1258 693 z m 1392 132 b 1226 375 1392 244 1332 343 l 1226 389 b 1354 590 1317 411 1354 496 b 1054 825 1347 765 1221 825 l 725 825 l 725 -136 l 1067 -136 b 1392 132 1258 -136 1392 -60 z m 456 1357 b 528 1428 456 1424 461 1428 l 2064 1428 b 2136 1357 2131 1428 2136 1424 l 2136 -256 b 2064 -326 2136 -322 2131 -326 l 528 -326 b 456 -256 461 -326 456 -322 z m 69 1586 l 69 -635 l 69 -643 b 172 -739 69 -739 71 -739 l 2453 -739 b 2556 -643 2554 -739 2556 -739 l 2556 -635 l 2556 1586 l 2556 1594 b 2453 1690 2556 1690 2554 1690 l 172 1690 b 69 1594 71 1690 69 1690 z m 147 -685 l 461 -376 l 2128 -376 l 2481 -685 z m 122 -676 l 122 1624 l 378 1349 l 378 -268 z m 2503 -676 l 2206 -268 l 2206 1369 l 2503 1624 z m 136 1628 l 2472 1628 l 2081 1482 l 528 1482 z "},"C":{"ha":2625,"x_min":0,"x_max":0,"o":"m 1415 -62 l 1415 64 b 1115 -58 1331 -21 1246 -58 b 749 344 851 -58 749 118 b 1115 750 753 569 846 750 b 1415 625 1247 750 1335 710 l 1415 756 b 1113 844 1328 813 1225 844 b 646 344 793 844 646 622 b 1113 -153 646 67 796 -153 b 1415 -62 1218 -153 1335 -119 z m 456 1357 b 528 1428 456 1424 461 1428 l 2064 1428 b 2136 1357 2131 1428 2136 1424 l 2136 -256 b 2064 -326 2136 -322 2131 -326 l 528 -326 b 456 -256 461 -326 456 -322 z m 69 1586 l 69 -635 l 69 -643 b 172 -739 69 -739 71 -739 l 2453 -739 b 2556 -643 2554 -739 2556 -739 l 2556 -635 l 2556 1586 l 2556 1594 b 2453 1690 2556 1690 2554 1690 l 172 1690 b 69 1594 71 1690 69 1690 z m 147 -685 l 461 -376 l 2128 -376 l 2481 -685 z m 122 -676 l 122 1624 l 378 1349 l 378 -268 z m 2503 -676 l 2206 -268 l 2206 1369 l 2503 1624 z m 136 1628 l 2472 1628 l 2081 1482 l 528 1482 z "},"D":{"ha":2625,"x_min":0,"x_max":0,"o":"m 1397 346 b 985 -40 1397 85 1268 -40 l 811 -40 l 811 729 l 985 729 b 1397 346 1268 726 1397 614 z m 1499 346 b 967 825 1499 689 1324 825 l 707 825 l 707 -136 l 967 -136 b 1499 346 1324 -136 1499 3 z m 456 1357 b 528 1428 456 1424 461 1428 l 2064 1428 b 2136 1357 2131 1428 2136 1424 l 2136 -256 b 2064 -326 2136 -322 2131 -326 l 528 -326 b 456 -256 461 -326 456 -322 z m 69 1586 l 69 -635 l 69 -643 b 172 -739 69 -739 71 -739 l 2453 -739 b 2556 -643 2554 -739 2556 -739 l 2556 -635 l 2556 1586 l 2556 1594 b 2453 1690 2556 1690 2554 1690 l 172 1690 b 69 1594 71 1690 69 1690 z m 147 -685 l 461 -376 l 2128 -376 l 2481 -685 z m 122 -676 l 122 1624 l 378 1349 l 378 -268 z m 2503 -676 l 2206 -268 l 2206 1369 l 2503 1624 z m 136 1628 l 2472 1628 l 2081 1482 l 528 1482 z "},"E":{"ha":2625,"x_min":0,"x_max":0,"o":"m 1308 -136 l 1308 -36 l 799 -36 l 799 325 l 1274 325 l 1274 425 l 799 425 l 799 724 l 1296 724 l 1296 825 l 694 825 l 694 -136 z m 456 1357 b 528 1428 456 1424 461 1428 l 2064 1428 b 2136 1357 2131 1428 2136 1424 l 2136 -256 b 2064 -326 2136 -322 2131 -326 l 528 -326 b 456 -256 461 -326 456 -322 z m 69 1586 l 69 -635 l 69 -643 b 172 -739 69 -739 71 -739 l 2453 -739 b 2556 -643 2554 -739 2556 -739 l 2556 -635 l 2556 1586 l 2556 1594 b 2453 1690 2556 1690 2554 1690 l 172 1690 b 69 1594 71 1690 69 1690 z m 147 -685 l 461 -376 l 2128 -376 l 2481 -685 z m 122 -676 l 122 1624 l 378 1349 l 378 -268 z m 2503 -676 l 2206 -268 l 2206 1369 l 2503 1624 z m 136 1628 l 2472 1628 l 2081 1482 l 528 1482 z "},"F":{"ha":2625,"x_min":0,"x_max":0,"o":"m 1275 724 l 1275 825 l 728 825 l 728 -136 l 833 -136 l 833 326 l 1232 326 l 1232 428 l 833 428 l 833 724 z m 456 1357 b 528 1428 456 1424 461 1428 l 2064 1428 b 2136 1357 2131 1428 2136 1424 l 2136 -256 b 2064 -326 2136 -322 2131 -326 l 528 -326 b 456 -256 461 -326 456 -322 z m 69 1586 l 69 -635 l 69 -643 b 172 -739 69 -739 71 -739 l 2453 -739 b 2556 -643 2554 -739 2556 -739 l 2556 -635 l 2556 1586 l 2556 1594 b 2453 1690 2556 1690 2554 1690 l 172 1690 b 69 1594 71 1690 69 1690 z m 147 -685 l 461 -376 l 2128 -376 l 2481 -685 z m 122 -676 l 122 1624 l 378 1349 l 378 -268 z m 2503 -676 l 2206 -268 l 2206 1369 l 2503 1624 z m 136 1628 l 2472 1628 l 2081 1482 l 528 1482 z "},"G":{"ha":2625,"x_min":0,"x_max":0,"o":"m 1478 -33 l 1478 376 l 1151 376 l 1151 279 l 1376 279 l 1376 4 b 1136 -44 1307 -25 1222 -44 b 754 358 864 -44 754 121 b 1132 764 760 596 856 764 b 1454 640 1274 764 1356 726 l 1454 769 b 1125 858 1361 826 1242 858 b 651 358 799 858 651 647 b 1124 -139 651 69 801 -139 b 1478 -33 1251 -139 1378 -104 z m 456 1357 b 528 1428 456 1424 461 1428 l 2064 1428 b 2136 1357 2131 1428 2136 1424 l 2136 -256 b 2064 -326 2136 -322 2131 -326 l 528 -326 b 456 -256 461 -326 456 -322 z m 69 1586 l 69 -635 l 69 -643 b 172 -739 69 -739 71 -739 l 2453 -739 b 2556 -643 2554 -739 2556 -739 l 2556 -635 l 2556 1586 l 2556 1594 b 2453 1690 2556 1690 2554 1690 l 172 1690 b 69 1594 71 1690 69 1690 z m 147 -685 l 461 -376 l 2128 -376 l 2481 -685 z m 122 -676 l 122 1624 l 378 1349 l 378 -268 z m 2503 -676 l 2206 -268 l 2206 1369 l 2503 1624 z m 136 1628 l 2472 1628 l 2081 1482 l 528 1482 z "},"H":{"ha":2625,"x_min":0,"x_max":0,"o":"m 1425 -136 l 1425 825 l 1319 825 l 1319 425 l 813 425 l 813 825 l 708 825 l 708 -136 l 813 -136 l 813 325 l 1319 325 l 1319 -136 z m 456 1357 b 528 1428 456 1424 461 1428 l 2064 1428 b 2136 1357 2131 1428 2136 1424 l 2136 -256 b 2064 -326 2136 -322 2131 -326 l 528 -326 b 456 -256 461 -326 456 -322 z m 69 1586 l 69 -635 l 69 -643 b 172 -739 69 -739 71 -739 l 2453 -739 b 2556 -643 2554 -739 2556 -739 l 2556 -635 l 2556 1586 l 2556 1594 b 2453 1690 2556 1690 2554 1690 l 172 1690 b 69 1594 71 1690 69 1690 z m 147 -685 l 461 -376 l 2128 -376 l 2481 -685 z m 122 -676 l 122 1624 l 378 1349 l 378 -268 z m 2503 -676 l 2206 -268 l 2206 1369 l 2503 1624 z m 136 1628 l 2472 1628 l 2081 1482 l 528 1482 z "},"I":{"ha":2625,"x_min":0,"x_max":0,"o":"m 979 -136 l 979 825 l 875 825 l 875 -136 z m 456 1357 b 528 1428 456 1424 461 1428 l 2064 1428 b 2136 1357 2131 1428 2136 1424 l 2136 -256 b 2064 -326 2136 -322 2131 -326 l 528 -326 b 456 -256 461 -326 456 -322 z m 69 1586 l 69 -635 l 69 -643 b 172 -739 69 -739 71 -739 l 2453 -739 b 2556 -643 2554 -739 2556 -739 l 2556 -635 l 2556 1586 l 2556 1594 b 2453 1690 2556 1690 2554 1690 l 172 1690 b 69 1594 71 1690 69 1690 z m 147 -685 l 461 -376 l 2128 -376 l 2481 -685 z m 122 -676 l 122 1624 l 378 1349 l 378 -268 z m 2503 -676 l 2206 -268 l 2206 1369 l 2503 1624 z m 136 1628 l 2472 1628 l 2081 1482 l 528 1482 z "},"J":{"ha":2625,"x_min":0,"x_max":0,"o":"m 1054 188 l 1054 825 l 951 825 l 951 188 b 914 7 951 101 939 40 b 767 -42 888 -25 833 -42 l 735 -42 l 735 -139 l 776 -139 b 986 -64 874 -139 943 -115 b 1054 188 1028 -12 1054 72 z m 456 1357 b 528 1428 456 1424 461 1428 l 2064 1428 b 2136 1357 2131 1428 2136 1424 l 2136 -256 b 2064 -326 2136 -322 2131 -326 l 528 -326 b 456 -256 461 -326 456 -322 z m 69 1586 l 69 -635 l 69 -643 b 172 -739 69 -739 71 -739 l 2453 -739 b 2556 -643 2554 -739 2556 -739 l 2556 -635 l 2556 1586 l 2556 1594 b 2453 1690 2556 1690 2554 1690 l 172 1690 b 69 1594 71 1690 69 1690 z m 147 -685 l 461 -376 l 2128 -376 l 2481 -685 z m 122 -676 l 122 1624 l 378 1349 l 378 -268 z m 2503 -676 l 2206 -268 l 2206 1369 l 2503 1624 z m 136 1628 l 2472 1628 l 2081 1482 l 528 1482 z "},"K":{"ha":2625,"x_min":0,"x_max":0,"o":"m 1478 -136 l 947 379 l 1444 825 l 1283 825 l 824 413 l 824 825 l 718 825 l 718 -136 l 824 -136 l 824 333 l 1319 -136 z m 456 1357 b 528 1428 456 1424 461 1428 l 2064 1428 b 2136 1357 2131 1428 2136 1424 l 2136 -256 b 2064 -326 2136 -322 2131 -326 l 528 -326 b 456 -256 461 -326 456 -322 z m 69 1586 l 69 -635 l 69 -643 b 172 -739 69 -739 71 -739 l 2453 -739 b 2556 -643 2554 -739 2556 -739 l 2556 -635 l 2556 1586 l 2556 1594 b 2453 1690 2556 1690 2554 1690 l 172 1690 b 69 1594 71 1690 69 1690 z m 147 -685 l 461 -376 l 2128 -376 l 2481 -685 z m 122 -676 l 122 1624 l 378 1349 l 378 -268 z m 2503 -676 l 2206 -268 l 2206 1369 l 2503 1624 z m 136 1628 l 2472 1628 l 2081 1482 l 528 1482 z "},"L":{"ha":2625,"x_min":0,"x_max":0,"o":"m 1331 -136 l 1331 -36 l 842 -36 l 842 825 l 736 825 l 736 -136 z m 456 1357 b 528 1428 456 1424 461 1428 l 2064 1428 b 2136 1357 2131 1428 2136 1424 l 2136 -256 b 2064 -326 2136 -322 2131 -326 l 528 -326 b 456 -256 461 -326 456 -322 z m 69 1586 l 69 -635 l 69 -643 b 172 -739 69 -739 71 -739 l 2453 -739 b 2556 -643 2554 -739 2556 -739 l 2556 -635 l 2556 1586 l 2556 1594 b 2453 1690 2556 1690 2554 1690 l 172 1690 b 69 1594 71 1690 69 1690 z m 147 -685 l 461 -376 l 2128 -376 l 2481 -685 z m 122 -676 l 122 1624 l 378 1349 l 378 -268 z m 2503 -676 l 2206 -268 l 2206 1369 l 2503 1624 z m 136 1628 l 2472 1628 l 2081 1482 l 528 1482 z "},"M":{"ha":2625,"x_min":0,"x_max":0,"o":"m 1550 -136 l 1550 825 l 1438 825 l 1121 256 l 797 825 l 685 825 l 685 -136 l 789 -136 l 789 633 l 1121 51 l 1446 633 l 1446 -136 z m 456 1357 b 528 1428 456 1424 461 1428 l 2064 1428 b 2136 1357 2131 1428 2136 1424 l 2136 -256 b 2064 -326 2136 -322 2131 -326 l 528 -326 b 456 -256 461 -326 456 -322 z m 69 1586 l 69 -635 l 69 -643 b 172 -739 69 -739 71 -739 l 2453 -739 b 2556 -643 2554 -739 2556 -739 l 2556 -635 l 2556 1586 l 2556 1594 b 2453 1690 2556 1690 2554 1690 l 172 1690 b 69 1594 71 1690 69 1690 z m 147 -685 l 461 -376 l 2128 -376 l 2481 -685 z m 122 -676 l 122 1624 l 378 1349 l 378 -268 z m 2503 -676 l 2206 -268 l 2206 1369 l 2503 1624 z m 136 1628 l 2472 1628 l 2081 1482 l 528 1482 z "},"N":{"ha":2639,"x_min":0,"x_max":0,"o":"m 1425 -136 l 1425 825 l 1321 825 l 1321 50 l 811 825 l 713 825 l 713 -136 l 815 -136 l 815 638 l 1313 -136 z m 463 1357 b 535 1428 463 1424 468 1428 l 2071 1428 b 2143 1357 2138 1428 2143 1424 l 2143 -256 b 2071 -326 2143 -322 2138 -326 l 535 -326 b 463 -256 468 -326 463 -322 z m 76 1586 l 76 -635 l 76 -643 b 179 -739 76 -739 78 -739 l 2460 -739 b 2563 -643 2561 -739 2563 -739 l 2563 -635 l 2563 1586 l 2563 1594 b 2460 1690 2563 1690 2561 1690 l 179 1690 b 76 1594 78 1690 76 1690 z m 154 -685 l 468 -376 l 2135 -376 l 2488 -685 z m 129 -676 l 129 1624 l 385 1349 l 385 -268 z m 2510 -676 l 2213 -268 l 2213 1369 l 2510 1624 z m 143 1628 l 2479 1628 l 2088 1482 l 535 1482 z "},"O":{"ha":2625,"x_min":0,"x_max":0,"o":"m 1390 342 b 1054 -62 1390 146 1297 -62 b 721 342 813 -62 721 150 b 1054 747 721 539 810 747 b 1390 342 1301 747 1390 542 z m 1493 342 b 1054 842 1493 604 1361 842 b 618 342 751 842 618 597 b 1054 -156 618 83 753 -156 b 1493 342 1360 -156 1493 78 z m 456 1357 b 528 1428 456 1424 461 1428 l 2064 1428 b 2136 1357 2131 1428 2136 1424 l 2136 -256 b 2064 -326 2136 -322 2131 -326 l 528 -326 b 456 -256 461 -326 456 -322 z m 69 1586 l 69 -635 l 69 -643 b 172 -739 69 -739 71 -739 l 2453 -739 b 2556 -643 2554 -739 2556 -739 l 2556 -635 l 2556 1586 l 2556 1594 b 2453 1690 2556 1690 2554 1690 l 172 1690 b 69 1594 71 1690 69 1690 z m 147 -685 l 461 -376 l 2128 -376 l 2481 -685 z m 122 -676 l 122 1624 l 378 1349 l 378 -268 z m 2503 -676 l 2206 -268 l 2206 1369 l 2503 1624 z m 136 1628 l 2472 1628 l 2081 1482 l 528 1482 z "},"P":{"ha":2625,"x_min":0,"x_max":0,"o":"m 1200 539 b 988 351 1197 419 1124 351 l 804 351 l 804 729 l 988 729 b 1200 539 1118 726 1200 667 z m 1304 538 b 988 825 1304 731 1189 825 l 700 825 l 700 -136 l 804 -136 l 804 253 l 983 253 b 1304 538 1186 253 1304 342 z m 456 1357 b 528 1428 456 1424 461 1428 l 2064 1428 b 2136 1357 2131 1428 2136 1424 l 2136 -256 b 2064 -326 2136 -322 2131 -326 l 528 -326 b 456 -256 461 -326 456 -322 z m 69 1586 l 69 -635 l 69 -643 b 172 -739 69 -739 71 -739 l 2453 -739 b 2556 -643 2554 -739 2556 -739 l 2556 -635 l 2556 1586 l 2556 1594 b 2453 1690 2556 1690 2554 1690 l 172 1690 b 69 1594 71 1690 69 1690 z m 147 -685 l 461 -376 l 2128 -376 l 2481 -685 z m 122 -676 l 122 1624 l 378 1349 l 378 -268 z m 2503 -676 l 2206 -268 l 2206 1369 l 2503 1624 z m 136 1628 l 2472 1628 l 2081 1482 l 528 1482 z "},"Q":{"ha":2625,"x_min":0,"x_max":0,"o":"m 136 1628 l 2472 1628 l 2081 1482 l 528 1482 z m 2503 -676 l 2206 -268 l 2206 1369 l 2503 1624 z m 122 -676 l 122 1624 l 378 1349 l 378 -268 z m 147 -685 l 461 -376 l 2128 -376 l 2481 -685 z m 69 1586 l 69 -635 l 69 -643 b 172 -739 69 -739 71 -739 l 2453 -739 b 2556 -643 2554 -739 2556 -739 l 2556 -635 l 2556 1586 l 2556 1594 b 2453 1690 2556 1690 2554 1690 l 172 1690 b 69 1594 71 1690 69 1690 z m 456 1357 b 528 1428 456 1424 461 1428 l 2064 1428 b 2136 1357 2131 1428 2136 1424 l 2136 -256 b 2064 -326 2136 -322 2131 -326 l 528 -326 b 456 -256 461 -326 456 -322 z m 1390 342 b 1317 71 1390 246 1368 147 l 1267 138 l 1167 138 l 1262 9 b 1054 -62 1211 -35 1142 -62 b 721 342 813 -62 721 150 b 1054 747 721 539 810 747 b 1390 342 1301 747 1390 542 z m 1323 -71 l 1372 -137 l 1472 -137 l 1381 -15 b 1493 342 1457 77 1493 205 b 1054 842 1493 604 1361 842 b 618 342 751 842 618 597 b 1054 -156 618 83 753 -156 b 1323 -71 1166 -156 1255 -124 z "},"R":{"ha":2625,"x_min":0,"x_max":0,"o":"m 1110 553 b 899 371 1110 431 1029 371 l 774 371 l 774 729 l 899 729 b 1110 553 1025 726 1110 679 z m 1347 -136 b 1003 301 1286 83 1135 235 b 1213 553 1163 343 1213 439 b 900 825 1213 744 1094 825 l 669 825 l 669 -136 l 774 -136 l 774 274 l 849 272 b 1228 -136 968 272 1219 -8 z m 456 1357 b 528 1428 456 1424 461 1428 l 2064 1428 b 2136 1357 2131 1428 2136 1424 l 2136 -256 b 2064 -326 2136 -322 2131 -326 l 528 -326 b 456 -256 461 -326 456 -322 z m 69 1586 l 69 -635 l 69 -643 b 172 -739 69 -739 71 -739 l 2453 -739 b 2556 -643 2554 -739 2556 -739 l 2556 -635 l 2556 1586 l 2556 1594 b 2453 1690 2556 1690 2554 1690 l 172 1690 b 69 1594 71 1690 69 1690 z m 147 -685 l 461 -376 l 2128 -376 l 2481 -685 z m 122 -676 l 122 1624 l 378 1349 l 378 -268 z m 2503 -676 l 2206 -268 l 2206 1369 l 2503 1624 z m 136 1628 l 2472 1628 l 2081 1482 l 528 1482 z "},"S":{"ha":2625,"x_min":0,"x_max":0,"o":"m 1203 142 b 983 425 1203 314 1114 389 l 925 439 b 789 596 850 460 789 485 b 961 764 792 724 871 764 b 1150 694 1044 764 1082 739 l 1150 808 b 940 858 1094 839 1006 858 b 690 586 796 858 690 775 b 904 328 690 418 772 363 l 960 314 b 1099 132 1040 286 1099 253 b 913 -46 1099 1 1003 -46 b 689 47 826 -46 757 -8 l 689 -79 b 922 -139 763 -108 842 -139 b 1203 142 1078 -139 1203 -68 z m 456 1357 b 528 1428 456 1424 461 1428 l 2064 1428 b 2136 1357 2131 1428 2136 1424 l 2136 -256 b 2064 -326 2136 -322 2131 -326 l 528 -326 b 456 -256 461 -326 456 -322 z m 69 1586 l 69 -635 l 69 -643 b 172 -739 69 -739 71 -739 l 2453 -739 b 2556 -643 2554 -739 2556 -739 l 2556 -635 l 2556 1586 l 2556 1594 b 2453 1690 2556 1690 2554 1690 l 172 1690 b 69 1594 71 1690 69 1690 z m 147 -685 l 461 -376 l 2128 -376 l 2481 -685 z m 122 -676 l 122 1624 l 378 1349 l 378 -268 z m 2503 -676 l 2206 -268 l 2206 1369 l 2503 1624 z m 136 1628 l 2472 1628 l 2081 1482 l 528 1482 z "},"T":{"ha":2625,"x_min":0,"x_max":0,"o":"m 1454 724 l 1454 825 l 643 825 l 643 724 l 997 724 l 997 -136 l 1101 -136 l 1101 724 z m 456 1357 b 528 1428 456 1424 461 1428 l 2064 1428 b 2136 1357 2131 1428 2136 1424 l 2136 -256 b 2064 -326 2136 -322 2131 -326 l 528 -326 b 456 -256 461 -326 456 -322 z m 69 1586 l 69 -635 l 69 -643 b 172 -739 69 -739 71 -739 l 2453 -739 b 2556 -643 2554 -739 2556 -739 l 2556 -635 l 2556 1586 l 2556 1594 b 2453 1690 2556 1690 2554 1690 l 172 1690 b 69 1594 71 1690 69 1690 z m 147 -685 l 461 -376 l 2128 -376 l 2481 -685 z m 122 -676 l 122 1624 l 378 1349 l 378 -268 z m 2503 -676 l 2206 -268 l 2206 1369 l 2503 1624 z m 136 1628 l 2472 1628 l 2081 1482 l 528 1482 z "},"U":{"ha":2625,"x_min":0,"x_max":0,"o":"m 1413 239 l 1413 842 l 1310 842 l 1310 256 b 1054 -46 1310 78 1264 -46 b 794 256 842 -46 794 74 l 794 842 l 690 842 l 690 239 b 1054 -139 690 7 800 -139 b 1413 239 1310 -139 1413 11 z m 456 1357 b 528 1428 456 1424 461 1428 l 2064 1428 b 2136 1357 2131 1428 2136 1424 l 2136 -256 b 2064 -326 2136 -322 2131 -326 l 528 -326 b 456 -256 461 -326 456 -322 z m 69 1586 l 69 -635 l 69 -643 b 172 -739 69 -739 71 -739 l 2453 -739 b 2556 -643 2554 -739 2556 -739 l 2556 -635 l 2556 1586 l 2556 1594 b 2453 1690 2556 1690 2554 1690 l 172 1690 b 69 1594 71 1690 69 1690 z m 147 -685 l 461 -376 l 2128 -376 l 2481 -685 z m 122 -676 l 122 1624 l 378 1349 l 378 -268 z m 2503 -676 l 2206 -268 l 2206 1369 l 2503 1624 z m 136 1628 l 2472 1628 l 2081 1482 l 528 1482 z "},"V":{"ha":2625,"x_min":0,"x_max":0,"o":"m 1454 817 l 1344 817 l 1054 106 l 757 817 l 650 817 l 1054 -164 z m 456 1357 b 528 1428 456 1424 461 1428 l 2064 1428 b 2136 1357 2131 1428 2136 1424 l 2136 -256 b 2064 -326 2136 -322 2131 -326 l 528 -326 b 456 -256 461 -326 456 -322 z m 69 1586 l 69 -635 l 69 -643 b 172 -739 69 -739 71 -739 l 2453 -739 b 2556 -643 2554 -739 2556 -739 l 2556 -635 l 2556 1586 l 2556 1594 b 2453 1690 2556 1690 2554 1690 l 172 1690 b 69 1594 71 1690 69 1690 z m 147 -685 l 461 -376 l 2128 -376 l 2481 -685 z m 122 -676 l 122 1624 l 378 1349 l 378 -268 z m 2503 -676 l 2206 -268 l 2206 1369 l 2503 1624 z m 136 1628 l 2472 1628 l 2081 1482 l 528 1482 z "},"W":{"ha":2625,"x_min":0,"x_max":0,"o":"m 1790 817 l 1675 817 l 1454 161 l 1175 839 l 888 161 l 671 817 l 565 817 l 889 -164 l 1175 564 l 1458 -164 z m 456 1357 b 528 1428 456 1424 461 1428 l 2064 1428 b 2136 1357 2131 1428 2136 1424 l 2136 -256 b 2064 -326 2136 -322 2131 -326 l 528 -326 b 456 -256 461 -326 456 -322 z m 69 1586 l 69 -635 l 69 -643 b 172 -739 69 -739 71 -739 l 2453 -739 b 2556 -643 2554 -739 2556 -739 l 2556 -635 l 2556 1586 l 2556 1594 b 2453 1690 2556 1690 2554 1690 l 172 1690 b 69 1594 71 1690 69 1690 z m 147 -685 l 461 -376 l 2128 -376 l 2481 -685 z m 122 -676 l 122 1624 l 378 1349 l 378 -268 z m 2503 -676 l 2206 -268 l 2206 1369 l 2503 1624 z m 136 1628 l 2472 1628 l 2081 1482 l 528 1482 z "},"X":{"ha":2625,"x_min":0,"x_max":0,"o":"m 1486 -136 l 1147 364 l 1467 825 l 1342 825 l 1085 461 l 829 825 l 704 825 l 1017 379 l 658 -136 l 783 -136 l 1076 281 l 1361 -136 z m 456 1357 b 528 1428 456 1424 461 1428 l 2064 1428 b 2136 1357 2131 1428 2136 1424 l 2136 -256 b 2064 -326 2136 -322 2131 -326 l 528 -326 b 456 -256 461 -326 456 -322 z m 69 1586 l 69 -635 l 69 -643 b 172 -739 69 -739 71 -739 l 2453 -739 b 2556 -643 2554 -739 2556 -739 l 2556 -635 l 2556 1586 l 2556 1594 b 2453 1690 2556 1690 2554 1690 l 172 1690 b 69 1594 71 1690 69 1690 z m 147 -685 l 461 -376 l 2128 -376 l 2481 -685 z m 122 -676 l 122 1624 l 378 1349 l 378 -268 z m 2503 -676 l 2206 -268 l 2206 1369 l 2503 1624 z m 136 1628 l 2472 1628 l 2081 1482 l 528 1482 z "},"Y":{"ha":2625,"x_min":0,"x_max":0,"o":"m 1454 825 l 1329 825 l 1051 421 l 774 825 l 649 825 l 999 322 l 999 -136 l 1103 -136 l 1103 322 z m 456 1357 b 528 1428 456 1424 461 1428 l 2064 1428 b 2136 1357 2131 1428 2136 1424 l 2136 -256 b 2064 -326 2136 -322 2131 -326 l 528 -326 b 456 -256 461 -326 456 -322 z m 69 1586 l 69 -635 l 69 -643 b 172 -739 69 -739 71 -739 l 2453 -739 b 2556 -643 2554 -739 2556 -739 l 2556 -635 l 2556 1586 l 2556 1594 b 2453 1690 2556 1690 2554 1690 l 172 1690 b 69 1594 71 1690 69 1690 z m 147 -685 l 461 -376 l 2128 -376 l 2481 -685 z m 122 -676 l 122 1624 l 378 1349 l 378 -268 z m 2503 -676 l 2206 -268 l 2206 1369 l 2503 1624 z m 136 1628 l 2472 1628 l 2081 1482 l 528 1482 z "},"Z":{"ha":2625,"x_min":0,"x_max":0,"o":"m 1492 -136 l 1492 -36 l 843 -36 l 1474 733 l 1475 825 l 714 825 l 714 722 l 1329 722 l 700 -43 l 700 -136 z m 456 1357 b 528 1428 456 1424 461 1428 l 2064 1428 b 2136 1357 2131 1428 2136 1424 l 2136 -256 b 2064 -326 2136 -322 2131 -326 l 528 -326 b 456 -256 461 -326 456 -322 z m 69 1586 l 69 -635 l 69 -643 b 172 -739 69 -739 71 -739 l 2453 -739 b 2556 -643 2554 -739 2556 -739 l 2556 -635 l 2556 1586 l 2556 1594 b 2453 1690 2556 1690 2554 1690 l 172 1690 b 69 1594 71 1690 69 1690 z m 147 -685 l 461 -376 l 2128 -376 l 2481 -685 z m 122 -676 l 122 1624 l 378 1349 l 378 -268 z m 2503 -676 l 2206 -268 l 2206 1369 l 2503 1624 z m 136 1628 l 2472 1628 l 2081 1482 l 528 1482 z "},"[":{"ha":2625,"x_min":0,"x_max":0,"o":"m 1231 900 b 1019 1114 1229 1029 1149 1114 l 942 1114 l 942 1267 l 1188 1267 l 1188 1333 l 879 1333 l 879 1049 l 1006 1049 b 1165 900 1099 1049 1165 997 b 1006 751 1165 799 1100 751 b 854 793 943 751 900 765 l 854 713 b 1007 686 896 697 957 686 b 1231 900 1143 686 1231 760 z m 1071 -204 b 960 183 999 -74 960 33 b 1071 569 961 336 997 436 l 1018 569 b 894 183 947 453 894 321 b 1018 -204 894 46 946 -86 z m 1817 -199 l 1817 -146 l 1717 -146 l 1717 522 l 1817 522 l 1817 576 l 1651 576 l 1651 -199 z m 456 1357 b 528 1428 456 1424 461 1428 l 2064 1428 b 2136 1357 2131 1428 2136 1424 l 2136 -256 b 2064 -326 2136 -322 2131 -326 l 528 -326 b 456 -256 461 -326 456 -322 z m 69 1586 l 69 -635 l 69 -643 b 172 -739 69 -739 71 -739 l 2453 -739 b 2556 -643 2554 -739 2556 -739 l 2556 -635 l 2556 1586 l 2556 1594 b 2453 1690 2556 1690 2554 1690 l 172 1690 b 69 1594 71 1690 69 1690 z m 147 -685 l 461 -376 l 2128 -376 l 2481 -685 z m 122 -676 l 122 1624 l 378 1349 l 378 -268 z m 2503 -676 l 2206 -268 l 2206 1369 l 2503 1624 z m 136 1628 l 2472 1628 l 2081 1482 l 528 1482 z "},"\\":{"ha":2625,"x_min":0,"x_max":0,"o":"m 1092 865 b 958 736 1092 781 1038 736 b 824 865 876 736 824 779 b 958 993 824 950 876 993 b 1092 865 1040 993 1092 947 z m 1078 1163 b 958 1054 1078 1096 1024 1054 l 956 1054 b 836 1163 892 1054 838 1103 b 958 1274 842 1244 888 1274 b 1078 1163 1021 1274 1074 1247 z m 1156 865 b 1042 1025 1154 939 1119 997 b 1144 1163 1100 1051 1144 1092 b 958 1333 1143 1272 1060 1333 b 772 1163 857 1333 772 1272 b 885 1025 772 1086 811 1051 b 758 865 803 1000 758 942 b 958 675 758 738 836 675 b 1156 865 1081 675 1156 738 z m 1900 -137 l 1646 746 l 1560 746 l 1813 -137 z m 1276 -219 l 1276 -137 l 635 -137 l 635 -219 z m 456 1357 b 528 1428 456 1424 461 1428 l 2064 1428 b 2136 1357 2131 1428 2136 1424 l 2136 -256 b 2064 -326 2136 -322 2131 -326 l 528 -326 b 456 -256 461 -326 456 -322 z m 69 1586 l 69 -635 l 69 -643 b 172 -739 69 -739 71 -739 l 2453 -739 b 2556 -643 2554 -739 2556 -739 l 2556 -635 l 2556 1586 l 2556 1594 b 2453 1690 2556 1690 2554 1690 l 172 1690 b 69 1594 71 1690 69 1690 z m 147 -685 l 461 -376 l 2128 -376 l 2481 -685 z m 122 -676 l 122 1624 l 378 1349 l 378 -268 z m 2503 -676 l 2206 -268 l 2206 1369 l 2503 1624 z m 136 1628 l 2472 1628 l 2081 1482 l 528 1482 z "},"]":{"ha":2625,"x_min":0,"x_max":0,"o":"m 929 1261 b 1014 1175 976 1261 1014 1222 b 929 1089 1014 1128 976 1089 b 844 1175 882 1089 844 1128 b 929 1261 844 1222 882 1261 z m 929 1332 b 774 1176 843 1332 774 1263 b 929 1021 774 1090 843 1021 b 1085 1176 1015 1021 1085 1090 b 929 1332 1085 1263 1015 1332 z m 894 -225 l 947 -225 b 1071 163 1019 -107 1071 25 b 947 549 1071 300 1018 432 l 894 549 b 1006 163 968 415 1004 315 b 894 -225 1006 13 967 -94 z m 1651 -219 l 1817 -219 l 1817 556 l 1651 556 l 1651 501 l 1751 501 l 1751 -167 l 1651 -167 z m 456 1357 b 528 1428 456 1424 461 1428 l 2064 1428 b 2136 1357 2131 1428 2136 1424 l 2136 -256 b 2064 -326 2136 -322 2131 -326 l 528 -326 b 456 -256 461 -326 456 -322 z m 69 1586 l 69 -635 l 69 -643 b 172 -739 69 -739 71 -739 l 2453 -739 b 2556 -643 2554 -739 2556 -739 l 2556 -635 l 2556 1586 l 2556 1594 b 2453 1690 2556 1690 2554 1690 l 172 1690 b 69 1594 71 1690 69 1690 z m 147 -685 l 461 -376 l 2128 -376 l 2481 -685 z m 122 -676 l 122 1624 l 378 1349 l 378 -268 z m 2503 -676 l 2206 -268 l 2206 1369 l 2503 1624 z m 136 1628 l 2472 1628 l 2081 1482 l 528 1482 z "},"^":{"ha":2625,"x_min":0,"x_max":0,"o":"m 1919 -1 l 1697 236 l 1619 236 l 1399 -1 l 1479 0 l 1658 165 l 1838 0 z m 1065 1131 b 929 978 1064 1043 1018 978 b 801 1131 842 978 801 1046 b 929 1274 801 1215 842 1274 b 1065 1131 1015 1274 1065 1218 z m 1138 1082 b 929 1333 1138 1215 1089 1333 b 736 1131 821 1332 736 1251 b 925 918 736 1010 799 918 b 1051 964 983 921 1015 929 b 847 721 1047 872 932 761 l 889 683 b 1138 1082 996 724 1138 865 z m 932 -31 b 783 129 836 -31 783 28 b 932 288 783 256 867 288 b 1054 253 988 285 990 278 l 1054 321 b 929 344 1007 339 960 344 b 715 129 799 344 715 265 b 771 -31 717 63 735 8 b 922 -89 808 -67 860 -87 b 951 -143 940 -114 951 -132 b 901 -178 951 -165 929 -178 b 840 -160 865 -175 858 -175 l 840 -215 b 910 -224 858 -219 883 -224 b 976 -207 938 -222 960 -217 b 997 -157 989 -196 997 -181 b 967 -86 997 -149 997 -126 b 1054 -64 985 -82 1013 -82 l 1054 6 b 932 -31 1004 -24 981 -31 z m 456 1357 b 528 1428 456 1424 461 1428 l 2064 1428 b 2136 1357 2131 1428 2136 1424 l 2136 -256 b 2064 -326 2136 -322 2131 -326 l 528 -326 b 456 -256 461 -326 456 -322 z m 69 1586 l 69 -635 l 69 -643 b 172 -739 69 -739 71 -739 l 2453 -739 b 2556 -643 2554 -739 2556 -739 l 2556 -635 l 2556 1586 l 2556 1594 b 2453 1690 2556 1690 2554 1690 l 172 1690 b 69 1594 71 1690 69 1690 z m 147 -685 l 461 -376 l 2128 -376 l 2481 -685 z m 122 -676 l 122 1624 l 378 1349 l 378 -268 z m 2503 -676 l 2206 -268 l 2206 1369 l 2503 1624 z m 136 1628 l 2472 1628 l 2081 1482 l 528 1482 z "},"_":{"ha":2625,"x_min":0,"x_max":0,"o":"m 1092 865 b 958 736 1092 781 1038 736 b 824 865 876 736 824 779 b 958 993 824 950 876 993 b 1092 865 1040 993 1092 947 z m 1078 1163 b 958 1054 1078 1096 1024 1054 l 956 1054 b 836 1163 892 1054 838 1103 b 958 1274 842 1244 888 1274 b 1078 1163 1021 1274 1074 1247 z m 1156 865 b 1042 1025 1154 939 1119 997 b 1144 1163 1100 1051 1144 1092 b 958 1333 1143 1272 1060 1333 b 772 1163 857 1333 772 1272 b 885 1025 772 1086 811 1051 b 758 865 803 1000 758 942 b 958 675 758 738 836 675 b 1156 865 1081 675 1156 738 z m 1900 -137 l 1646 746 l 1560 746 l 1813 -137 z m 1276 -219 l 1276 -137 l 635 -137 l 635 -219 z m 456 1357 b 528 1428 456 1424 461 1428 l 2064 1428 b 2136 1357 2131 1428 2136 1424 l 2136 -256 b 2064 -326 2136 -322 2131 -326 l 528 -326 b 456 -256 461 -326 456 -322 z m 69 1586 l 69 -635 l 69 -643 b 172 -739 69 -739 71 -739 l 2453 -739 b 2556 -643 2554 -739 2556 -739 l 2556 -635 l 2556 1586 l 2556 1594 b 2453 1690 2556 1690 2554 1690 l 172 1690 b 69 1594 71 1690 69 1690 z m 147 -685 l 461 -376 l 2128 -376 l 2481 -685 z m 122 -676 l 122 1624 l 378 1349 l 378 -268 z m 2503 -676 l 2206 -268 l 2206 1369 l 2503 1624 z m 136 1628 l 2472 1628 l 2081 1482 l 528 1482 z "},"`":{"ha":4278,"x_min":0,"x_max":0,"o":"m 2832 -1 l 2832 57 l 2760 57 b 2683 133 2694 57 2683 72 l 2683 357 l 2806 357 l 2806 411 l 2683 411 l 2683 529 l 2654 529 l 2615 411 l 2567 411 l 2567 357 l 2615 357 l 2615 133 b 2760 -1 2615 29 2657 -1 z m 2489 -1 l 2489 411 l 2418 411 l 2418 178 b 2294 47 2418 100 2378 47 b 2197 163 2221 47 2197 92 l 2197 411 l 2129 411 l 2129 161 b 2279 -12 2129 64 2175 -12 b 2418 53 2333 -12 2388 17 l 2418 -1 z m 2017 206 b 1807 413 2017 329 1940 413 l 1706 413 l 1706 633 l 1636 633 l 1636 0 l 1813 0 b 2017 206 1935 0 2017 85 z m 1950 206 b 1807 60 1950 118 1897 60 l 1706 60 l 1706 353 l 1807 353 b 1950 206 1899 353 1950 288 z m 1479 617 l 1399 617 l 1282 478 l 1343 478 z m 1568 207 l 1568 213 b 1383 422 1568 332 1519 419 b 1193 201 1261 422 1193 315 b 1396 -11 1193 76 1269 -11 b 1554 19 1453 -11 1504 0 l 1554 89 b 1400 50 1489 57 1479 50 b 1264 199 1315 50 1264 100 l 1264 207 z m 1501 263 l 1265 263 b 1383 364 1274 318 1314 364 b 1501 263 1454 364 1501 319 z m 1133 318 b 806 633 1133 544 1025 633 l 644 633 l 644 0 l 806 0 b 1133 318 1025 0 1133 92 z m 1065 318 b 818 63 1065 146 989 63 l 714 63 l 714 571 l 818 571 b 1065 318 989 569 1065 494 z m 3118 556 l 3046 556 l 3046 0 l 3118 0 z m 456 1357 b 528 1428 456 1424 461 1428 l 3710 1428 b 3782 1357 3776 1428 3782 1424 l 3782 -256 b 3710 -326 3782 -322 3776 -326 l 528 -326 b 456 -256 461 -326 456 -322 z m 69 1586 l 69 -635 l 69 -643 b 172 -739 69 -739 71 -739 l 4099 -739 b 4201 -643 4200 -739 4201 -739 l 4201 -635 l 4201 1586 l 4201 1594 b 4099 1690 4201 1690 4200 1690 l 172 1690 b 69 1594 71 1690 69 1690 z m 147 -685 l 461 -376 l 3774 -376 l 4126 -685 z m 122 -676 l 122 1624 l 378 1349 l 378 -268 z m 4149 -676 l 3851 -268 l 3851 1369 l 4149 1624 z m 136 1628 l 4118 1628 l 3726 1482 l 528 1482 z m 3510 556 l 3139 261 l 3510 0 z "},"a":{"ha":2625,"x_min":0,"x_max":0,"o":"m 456 1357 b 528 1428 456 1424 461 1428 l 2064 1428 b 2136 1357 2131 1428 2136 1424 l 2136 -256 b 2064 -326 2136 -322 2131 -326 l 528 -326 b 456 -256 461 -326 456 -322 z m 69 1586 l 69 -635 l 69 -643 b 172 -739 69 -739 71 -739 l 2453 -739 b 2556 -643 2554 -739 2556 -739 l 2556 -635 l 2556 1586 l 2556 1594 b 2453 1690 2556 1690 2554 1690 l 172 1690 b 69 1594 71 1690 69 1690 z m 147 -685 l 461 -376 l 2128 -376 l 2481 -685 z m 122 -676 l 122 1624 l 378 1349 l 378 -268 z m 2503 -676 l 2206 -268 l 2206 1369 l 2503 1624 z m 136 1628 l 2472 1628 l 2081 1482 l 528 1482 z m 900 -137 l 1389 -137 l 1389 208 l 1625 208 l 1157 781 l 654 208 l 900 208 z m 935 -103 l 935 243 l 731 243 l 1156 727 l 1552 243 l 1354 243 l 1354 -103 z "},"b":{"ha":3792,"x_min":0,"x_max":0,"o":"m 1917 633 l 1850 633 l 1850 0 l 1917 0 z m 1054 61 l 1054 144 b 875 64 1004 89 953 64 b 656 329 717 64 656 179 b 875 597 658 478 714 597 b 1054 515 954 597 1006 571 l 1054 601 b 871 660 1001 639 940 660 b 588 329 676 660 588 513 b 871 1 588 146 678 1 b 1054 61 935 1 1006 24 z m 1746 328 l 1768 394 b 1682 417 1758 406 1713 417 b 1585 356 1639 415 1604 393 l 1585 411 l 1517 411 l 1517 -3 l 1585 -3 l 1585 217 l 1585 219 b 1682 358 1585 279 1617 358 l 1686 358 b 1746 328 1708 358 1725 346 z m 1415 1 l 1415 60 l 1342 60 b 1267 138 1276 60 1267 76 l 1267 361 l 1388 361 l 1388 415 l 1267 415 l 1267 533 l 1238 533 l 1199 415 l 1150 415 l 1150 361 l 1199 361 l 1199 138 b 1342 1 1199 33 1239 1 z m 456 1357 b 528 1428 456 1424 461 1428 l 3224 1428 b 3296 1357 3290 1428 3296 1424 l 3296 -256 b 3224 -326 3296 -322 3290 -326 l 528 -326 b 456 -256 461 -326 456 -322 z m 69 1586 l 69 -635 l 69 -643 b 172 -739 69 -739 71 -739 l 3613 -739 b 3715 -643 3714 -739 3715 -739 l 3715 -635 l 3715 1586 l 3715 1594 b 3613 1690 3715 1690 3714 1690 l 172 1690 b 69 1594 71 1690 69 1690 z m 147 -685 l 461 -376 l 3288 -376 l 3640 -685 z m 122 -676 l 122 1624 l 378 1349 l 378 -268 z m 3663 -676 l 3365 -268 l 3365 1369 l 3663 1624 z m 136 1628 l 3632 1628 l 3240 1482 l 528 1482 z "},"c":{"ha":3792,"x_min":0,"x_max":0,"o":"m 1153 0 l 928 633 l 844 633 l 621 0 l 693 0 l 747 165 l 1026 165 l 1079 0 z m 1004 231 l 769 231 l 888 557 z m 1314 633 l 1247 633 l 1247 0 l 1314 0 z m 1692 3 l 1692 61 l 1618 61 b 1543 139 1553 61 1543 78 l 1543 363 l 1664 363 l 1664 417 l 1543 417 l 1543 535 l 1514 535 l 1475 417 l 1426 417 l 1426 363 l 1475 363 l 1475 139 b 1618 3 1475 35 1515 3 z m 456 1357 b 528 1428 456 1424 461 1428 l 3224 1428 b 3296 1357 3290 1428 3296 1424 l 3296 -256 b 3224 -326 3296 -322 3290 -326 l 528 -326 b 456 -256 461 -326 456 -322 z m 69 1586 l 69 -635 l 69 -643 b 172 -739 69 -739 71 -739 l 3613 -739 b 3715 -643 3714 -739 3715 -739 l 3715 -635 l 3715 1586 l 3715 1594 b 3613 1690 3715 1690 3714 1690 l 172 1690 b 69 1594 71 1690 69 1690 z m 147 -685 l 461 -376 l 3288 -376 l 3640 -685 z m 122 -676 l 122 1624 l 378 1349 l 378 -268 z m 3663 -676 l 3365 -268 l 3365 1369 l 3663 1624 z m 136 1628 l 3632 1628 l 3240 1482 l 528 1482 z "},"d":{"ha":3792,"x_min":0,"x_max":0,"o":"m 2863 332 l 2883 400 b 2799 422 2874 411 2829 422 b 2701 361 2756 421 2721 399 l 2701 417 l 2633 417 l 2633 3 l 2701 3 l 2701 222 l 2701 225 b 2797 364 2701 285 2732 364 l 2803 364 b 2863 332 2825 364 2842 350 z m 2532 69 l 2532 340 l 2331 340 l 2331 276 l 2465 276 l 2465 94 b 2321 63 2424 75 2372 63 b 2092 328 2158 63 2092 171 b 2321 596 2096 485 2153 596 b 2517 514 2407 596 2457 571 l 2517 600 b 2314 658 2460 638 2385 658 b 2024 328 2114 658 2024 518 b 2314 0 2024 138 2115 0 b 2532 69 2393 0 2471 22 z m 1153 0 l 928 633 l 844 633 l 621 0 l 693 0 l 747 165 l 1026 165 l 1079 0 z m 1004 231 l 769 231 l 888 557 z m 1314 633 l 1247 633 l 1247 0 l 1314 0 z m 1692 3 l 1692 61 l 1618 61 b 1543 139 1553 61 1543 78 l 1543 363 l 1664 363 l 1664 417 l 1543 417 l 1543 535 l 1514 535 l 1475 417 l 1426 417 l 1426 363 l 1475 363 l 1475 139 b 1618 3 1475 35 1515 3 z m 456 1357 b 528 1428 456 1424 461 1428 l 3224 1428 b 3296 1357 3290 1428 3296 1424 l 3296 -256 b 3224 -326 3296 -322 3290 -326 l 528 -326 b 456 -256 461 -326 456 -322 z m 69 1586 l 69 -635 l 69 -643 b 172 -739 69 -739 71 -739 l 3613 -739 b 3715 -643 3714 -739 3715 -739 l 3715 -635 l 3715 1586 l 3715 1594 b 3613 1690 3715 1690 3714 1690 l 172 1690 b 69 1594 71 1690 69 1690 z m 147 -685 l 461 -376 l 3288 -376 l 3640 -685 z m 122 -676 l 122 1624 l 378 1349 l 378 -268 z m 3663 -676 l 3365 -268 l 3365 1369 l 3663 1624 z m 136 1628 l 3632 1628 l 3240 1482 l 528 1482 z "},"e":{"ha":3792,"x_min":0,"x_max":0,"o":"m 2504 331 l 2526 397 b 2440 419 2517 408 2471 419 b 2343 358 2397 418 2363 396 l 2343 414 l 2275 414 l 2275 0 l 2343 0 l 2343 219 l 2343 222 b 2440 361 2343 282 2375 361 l 2444 361 b 2504 331 2467 361 2483 349 z m 2199 215 l 2199 222 b 2014 432 2199 342 2150 429 b 1822 211 1892 432 1822 325 b 2025 -3 1822 86 1899 -3 b 2183 28 2082 -3 2133 8 l 2183 97 b 2031 58 2118 65 2110 58 b 1893 208 1946 58 1893 110 l 1893 215 z m 2132 271 l 1896 271 b 2014 372 1904 326 1944 372 b 2132 271 2085 372 2132 328 z m 1750 0 l 1750 58 l 1676 58 b 1601 136 1611 58 1601 75 l 1601 360 l 1722 360 l 1722 414 l 1601 414 l 1601 532 l 1572 532 l 1533 414 l 1485 414 l 1485 360 l 1533 360 l 1533 136 b 1676 0 1533 32 1574 0 z m 1426 0 l 1426 250 b 1279 424 1426 349 1385 424 b 1138 358 1225 424 1171 404 l 1138 415 l 1069 415 l 1069 0 l 1138 0 l 1138 235 b 1263 364 1139 314 1189 364 b 1360 249 1335 364 1360 322 l 1360 0 z m 994 0 l 994 67 l 689 67 l 689 306 l 974 306 l 974 371 l 689 371 l 689 568 l 988 568 l 988 635 l 619 635 l 619 0 z m 456 1357 b 528 1428 456 1424 461 1428 l 3224 1428 b 3296 1357 3290 1428 3296 1424 l 3296 -256 b 3224 -326 3296 -322 3290 -326 l 528 -326 b 456 -256 461 -326 456 -322 z m 69 1586 l 69 -635 l 69 -643 b 172 -739 69 -739 71 -739 l 3613 -739 b 3715 -643 3714 -739 3715 -739 l 3715 -635 l 3715 1586 l 3715 1594 b 3613 1690 3715 1690 3714 1690 l 172 1690 b 69 1594 71 1690 69 1690 z m 147 -685 l 461 -376 l 3288 -376 l 3640 -685 z m 122 -676 l 122 1624 l 378 1349 l 378 -268 z m 3663 -676 l 3365 -268 l 3365 1369 l 3663 1624 z m 136 1628 l 3632 1628 l 3240 1482 l 528 1482 z "},"f":{"ha":3792,"x_min":0,"x_max":0,"o":"m 2747 207 b 2543 413 2747 328 2665 413 l 2367 413 l 2367 -221 l 2436 -221 l 2436 0 l 2538 0 b 2747 207 2671 0 2747 83 z m 2681 207 b 2538 60 2681 125 2629 60 l 2436 60 l 2436 353 l 2538 353 b 2681 207 2628 353 2681 294 z m 2269 0 l 2269 236 b 2094 424 2269 356 2218 424 b 1956 396 2050 424 1994 410 l 1956 328 b 2089 365 1997 351 2032 365 b 2206 263 2156 364 2206 332 l 2110 263 b 1926 122 2013 263 1926 229 b 2061 -10 1928 38 1976 -10 b 2206 54 2119 -10 2174 13 l 2206 0 z m 2206 193 b 2081 47 2206 113 2168 47 b 1989 126 2031 47 1989 71 b 2138 206 1989 206 2067 206 l 2206 206 z m 1833 1 l 1833 251 b 1686 425 1833 347 1790 425 b 1544 357 1629 425 1575 407 l 1544 635 l 1476 635 l 1476 1 l 1544 1 l 1544 235 b 1669 365 1546 314 1600 364 b 1767 249 1743 364 1767 322 l 1767 1 z m 1394 28 l 1394 96 b 1272 61 1350 74 1331 61 b 1124 219 1172 63 1124 121 b 1272 378 1124 315 1174 378 b 1394 343 1328 375 1347 365 l 1394 413 b 1269 436 1357 425 1317 436 b 1056 219 1135 436 1056 351 b 1264 3 1057 90 1131 3 b 1394 28 1311 3 1358 15 z m 994 1 l 994 68 l 689 68 l 689 307 l 974 307 l 974 372 l 689 372 l 689 569 l 988 569 l 988 636 l 619 636 l 619 1 z m 456 1357 b 528 1428 456 1424 461 1428 l 3224 1428 b 3296 1357 3290 1428 3296 1424 l 3296 -256 b 3224 -326 3296 -322 3290 -326 l 528 -326 b 456 -256 461 -326 456 -322 z m 69 1586 l 69 -635 l 69 -643 b 172 -739 69 -739 71 -739 l 3613 -739 b 3715 -643 3714 -739 3715 -739 l 3715 -635 l 3715 1586 l 3715 1594 b 3613 1690 3715 1690 3714 1690 l 172 1690 b 69 1594 71 1690 69 1690 z m 147 -685 l 461 -376 l 3288 -376 l 3640 -685 z m 122 -676 l 122 1624 l 378 1349 l 378 -268 z m 3663 -676 l 3365 -268 l 3365 1369 l 3663 1624 z m 136 1628 l 3632 1628 l 3240 1482 l 528 1482 z "},"g":{"ha":3792,"x_min":0,"x_max":0,"o":"m 2651 332 l 2672 400 b 2588 422 2663 411 2618 422 b 2490 361 2544 421 2510 399 l 2490 417 l 2422 417 l 2422 3 l 2490 3 l 2490 222 l 2490 225 b 2586 364 2490 285 2521 364 l 2592 364 b 2651 332 2614 364 2631 350 z m 2336 206 b 2132 411 2336 326 2254 411 l 1956 411 l 1956 -222 l 2025 -222 l 2025 -1 l 2126 -1 b 2336 206 2260 -1 2336 82 z m 2269 206 b 2126 58 2269 124 2218 58 l 2025 58 l 2025 351 l 2126 351 b 2269 206 2217 351 2269 293 z m 1886 206 b 1682 411 1886 326 1804 411 l 1506 411 l 1506 -222 l 1575 -222 l 1575 -1 l 1676 -1 b 1886 206 1810 -1 1886 82 z m 1819 206 b 1676 58 1819 124 1768 58 l 1575 58 l 1575 351 l 1676 351 b 1819 206 1767 351 1819 293 z m 1417 -1 l 1417 411 l 1346 411 l 1346 178 b 1222 47 1346 100 1306 47 b 1125 163 1149 47 1125 92 l 1125 411 l 1057 411 l 1057 161 b 1207 -12 1057 64 1103 -12 b 1346 53 1261 -12 1315 17 l 1346 -1 z m 996 182 b 825 369 996 296 926 346 l 774 379 b 653 482 707 393 653 408 b 799 593 654 567 721 593 b 961 547 869 593 903 576 l 961 622 b 790 656 915 643 843 656 b 588 476 674 656 588 601 b 754 306 588 365 651 328 l 803 296 b 928 176 874 278 928 256 b 772 58 928 90 847 58 b 586 119 701 58 642 83 l 586 36 b 772 -3 644 17 708 -3 b 996 182 897 -3 996 43 z m 456 1357 b 528 1428 456 1424 461 1428 l 3224 1428 b 3296 1357 3290 1428 3296 1424 l 3296 -256 b 3224 -326 3296 -322 3290 -326 l 528 -326 b 456 -256 461 -326 456 -322 z m 69 1586 l 69 -635 l 69 -643 b 172 -739 69 -739 71 -739 l 3613 -739 b 3715 -643 3714 -739 3715 -739 l 3715 -635 l 3715 1586 l 3715 1594 b 3613 1690 3715 1690 3714 1690 l 172 1690 b 69 1594 71 1690 69 1690 z m 147 -685 l 461 -376 l 3288 -376 l 3640 -685 z m 122 -676 l 122 1624 l 378 1349 l 378 -268 z m 3663 -676 l 3365 -268 l 3365 1369 l 3663 1624 z m 136 1628 l 3632 1628 l 3240 1482 l 528 1482 z "},"h":{"ha":3792,"x_min":0,"x_max":0,"o":"m 1671 125 b 1542 247 1671 207 1617 232 l 1513 253 b 1413 315 1474 261 1413 271 b 1524 376 1415 367 1478 376 b 1651 343 1596 374 1590 369 l 1651 413 b 1514 433 1613 428 1564 433 b 1351 313 1432 433 1351 406 b 1472 196 1353 238 1403 210 l 1499 190 b 1606 119 1549 178 1606 172 b 1499 57 1603 68 1544 57 b 1346 100 1422 60 1411 69 l 1346 24 b 1496 0 1385 14 1450 0 b 1671 125 1578 0 1671 29 z m 753 0 l 753 633 l 685 633 l 685 0 z m 2431 331 l 2453 397 b 2367 419 2443 408 2397 419 b 2269 358 2324 418 2289 396 l 2269 414 l 2201 414 l 2201 0 l 2269 0 l 2269 219 l 2269 222 b 2367 361 2269 282 2301 361 l 2371 361 b 2431 331 2393 361 2410 349 z m 2125 215 l 2125 222 b 1940 432 2125 342 2076 429 b 1749 211 1818 432 1749 325 b 1951 -3 1749 86 1825 -3 b 2110 28 2008 -3 2060 8 l 2110 97 b 1957 58 2044 65 2036 58 b 1819 208 1872 58 1819 110 l 1819 215 z m 2058 271 l 1822 271 b 1940 372 1831 326 1871 372 b 2058 271 2011 372 2058 328 z m 2775 1 l 2775 60 l 2701 60 b 2626 138 2636 60 2626 76 l 2626 361 l 2747 361 l 2747 415 l 2626 415 l 2626 533 l 2597 533 l 2558 415 l 2510 415 l 2510 361 l 2558 361 l 2558 138 b 2701 1 2558 33 2599 1 z m 1246 0 l 1246 250 b 1099 424 1246 349 1204 424 b 957 358 1044 424 990 404 l 957 415 l 889 415 l 889 0 l 957 0 l 957 235 b 1082 364 958 314 1008 364 b 1179 249 1154 364 1179 322 l 1179 0 z m 456 1357 b 528 1428 456 1424 461 1428 l 3224 1428 b 3296 1357 3290 1428 3296 1424 l 3296 -256 b 3224 -326 3296 -322 3290 -326 l 528 -326 b 456 -256 461 -326 456 -322 z m 69 1586 l 69 -635 l 69 -643 b 172 -739 69 -739 71 -739 l 3613 -739 b 3715 -643 3714 -739 3715 -739 l 3715 -635 l 3715 1586 l 3715 1594 b 3613 1690 3715 1690 3714 1690 l 172 1690 b 69 1594 71 1690 69 1690 z m 147 -685 l 461 -376 l 3288 -376 l 3640 -685 z m 122 -676 l 122 1624 l 378 1349 l 378 -268 z m 3663 -676 l 3365 -268 l 3365 1369 l 3663 1624 z m 136 1628 l 3632 1628 l 3240 1482 l 528 1482 z "},"i":{"ha":4278,"x_min":0,"x_max":0,"o":"m 1283 328 l 1306 394 b 1219 417 1296 406 1250 417 b 1122 356 1176 415 1142 393 l 1122 411 l 1054 411 l 1054 -3 l 1122 -3 l 1122 217 l 1122 219 b 1219 358 1122 279 1154 358 l 1224 358 b 1283 328 1246 358 1263 346 z m 3306 26 l 3306 94 b 3183 60 3261 72 3242 60 b 3035 218 3083 61 3035 119 b 3183 376 3035 314 3085 376 b 3306 342 3239 374 3258 364 l 3306 411 b 3181 435 3268 424 3228 435 b 2967 218 3046 435 2967 350 b 3175 1 2968 89 3042 1 b 3306 26 3222 1 3269 14 z m 2839 628 l 2758 628 l 2642 489 l 2703 489 z m 2928 218 l 2928 224 b 2743 433 2928 343 2879 431 b 2553 213 2621 433 2553 326 b 2756 0 2553 88 2629 0 b 2914 31 2813 0 2864 11 l 2914 100 b 2760 61 2849 68 2839 61 b 2624 210 2675 61 2624 111 l 2624 218 z m 2861 274 l 2625 274 b 2743 375 2633 329 2674 375 b 2861 274 2814 375 2861 331 z m 2317 56 b 2378 -6 2317 22 2344 -6 b 2439 56 2412 -6 2439 22 b 2378 117 2439 89 2412 117 b 2317 56 2344 117 2317 89 z m 1428 0 l 1428 413 l 1360 413 l 1360 0 z m 1394 633 b 1354 590 1372 633 1354 613 b 1394 547 1354 568 1372 547 b 1435 590 1417 547 1435 568 b 1394 633 1435 613 1417 633 z m 979 444 b 783 633 979 572 908 633 l 606 633 l 606 0 l 674 0 l 674 257 l 783 257 b 979 444 907 257 979 315 z m 911 444 b 783 321 910 365 865 321 l 674 321 l 674 571 l 783 571 b 911 444 861 569 911 529 z m 3611 333 l 3633 400 b 3547 422 3624 411 3578 422 b 3450 361 3504 421 3469 399 l 3450 417 l 3382 417 l 3382 3 l 3450 3 l 3450 222 l 3450 225 b 3547 364 3450 285 3482 364 l 3551 364 b 3611 333 3574 364 3590 351 z m 2233 1 l 2233 60 l 2160 60 b 2085 138 2094 60 2085 76 l 2085 361 l 2206 361 l 2206 415 l 2085 415 l 2085 533 l 2056 533 l 2017 415 l 1968 415 l 1968 361 l 2017 361 l 2017 138 b 2160 1 2017 33 2057 1 z m 1903 1 l 1903 251 b 1756 425 1903 350 1861 425 b 1614 360 1701 425 1647 406 l 1614 417 l 1546 417 l 1546 1 l 1614 1 l 1614 236 b 1739 365 1615 315 1665 365 b 1836 250 1811 365 1836 324 l 1836 1 z m 456 1357 b 528 1428 456 1424 461 1428 l 3710 1428 b 3782 1357 3776 1428 3782 1424 l 3782 -256 b 3710 -326 3782 -322 3776 -326 l 528 -326 b 456 -256 461 -326 456 -322 z m 69 1586 l 69 -635 l 69 -643 b 172 -739 69 -739 71 -739 l 4099 -739 b 4201 -643 4200 -739 4201 -739 l 4201 -635 l 4201 1586 l 4201 1594 b 4099 1690 4201 1690 4200 1690 l 172 1690 b 69 1594 71 1690 69 1690 z m 147 -685 l 461 -376 l 3774 -376 l 4126 -685 z m 122 -676 l 122 1624 l 378 1349 l 378 -268 z m 4149 -676 l 3851 -268 l 3851 1369 l 4149 1624 z m 136 1628 l 4118 1628 l 3726 1482 l 528 1482 z "},"j":{"ha":3792,"x_min":0,"x_max":0,"o":"m 2257 114 b 2128 236 2257 196 2203 221 l 2099 242 b 1999 304 2060 250 1999 260 b 2110 365 2001 356 2064 365 b 2238 332 2182 363 2176 358 l 2238 401 b 2100 422 2199 417 2150 422 b 1938 301 2018 422 1938 394 b 2058 185 1939 226 1989 199 l 2085 179 b 2192 108 2135 167 2192 161 b 2085 46 2189 57 2131 46 b 1932 89 2008 49 1997 58 l 1932 13 b 2082 -11 1971 3 2036 -11 b 2257 114 2164 -11 2257 18 z m 2696 211 l 2696 217 b 2511 426 2696 336 2647 424 b 2321 206 2389 426 2321 319 b 2524 -7 2321 81 2397 -7 b 2682 24 2581 -7 2632 4 l 2682 93 b 2528 54 2617 61 2607 54 b 2392 203 2443 54 2392 104 l 2392 211 z m 2629 267 l 2393 267 b 2511 368 2401 322 2442 368 b 2629 267 2582 368 2629 324 z m 1850 0 l 1850 413 l 1779 413 l 1779 179 b 1656 49 1779 101 1739 49 b 1558 164 1582 49 1558 93 l 1558 413 l 1490 413 l 1490 163 b 1640 -11 1490 65 1536 -11 b 1779 54 1694 -11 1749 18 l 1779 0 z m 1028 444 b 832 633 1028 572 957 633 l 654 633 l 654 0 l 722 0 l 722 257 l 832 257 b 1028 444 956 257 1028 315 z m 960 444 b 832 321 958 365 914 321 l 722 321 l 722 571 l 832 571 b 960 444 910 569 960 529 z m 1421 -1 l 1421 235 b 1246 422 1421 354 1369 422 b 1107 394 1201 422 1146 408 l 1107 326 b 1240 364 1149 350 1183 364 b 1357 261 1307 363 1357 331 l 1261 261 b 1078 118 1164 261 1078 225 b 1213 -11 1079 33 1128 -11 b 1357 53 1271 -11 1325 11 l 1357 -1 z m 1357 192 b 1232 46 1357 111 1319 46 b 1140 125 1182 46 1140 69 b 1289 204 1140 204 1218 204 l 1357 204 z m 456 1357 b 528 1428 456 1424 461 1428 l 3224 1428 b 3296 1357 3290 1428 3296 1424 l 3296 -256 b 3224 -326 3296 -322 3290 -326 l 528 -326 b 456 -256 461 -326 456 -322 z m 69 1586 l 69 -635 l 69 -643 b 172 -739 69 -739 71 -739 l 3613 -739 b 3715 -643 3714 -739 3715 -739 l 3715 -635 l 3715 1586 l 3715 1594 b 3613 1690 3715 1690 3714 1690 l 172 1690 b 69 1594 71 1690 69 1690 z m 147 -685 l 461 -376 l 3288 -376 l 3640 -685 z m 122 -676 l 122 1624 l 378 1349 l 378 -268 z m 3663 -676 l 3365 -268 l 3365 1369 l 3663 1624 z m 136 1628 l 3632 1628 l 3240 1482 l 528 1482 z "},"k":{"ha":3792,"x_min":0,"x_max":0,"o":"m 1889 206 b 1679 413 1889 329 1813 413 l 1578 413 l 1578 633 l 1508 633 l 1508 0 l 1685 0 b 1889 206 1807 0 1889 85 z m 1822 206 b 1679 60 1822 118 1769 60 l 1578 60 l 1578 353 l 1679 353 b 1822 206 1771 353 1822 288 z m 1144 567 l 1144 633 l 650 633 l 650 567 l 864 567 l 864 0 l 932 0 l 932 567 z m 1421 -1 l 1421 235 b 1246 422 1421 354 1369 422 b 1107 394 1201 422 1146 408 l 1107 326 b 1240 364 1149 350 1183 364 b 1357 261 1307 363 1357 331 l 1261 261 b 1078 118 1164 261 1078 225 b 1213 -11 1079 33 1128 -11 b 1357 53 1271 -11 1325 11 l 1357 -1 z m 1357 192 b 1232 46 1357 111 1319 46 b 1140 125 1182 46 1140 69 b 1289 204 1140 204 1218 204 l 1357 204 z m 456 1357 b 528 1428 456 1424 461 1428 l 3224 1428 b 3296 1357 3290 1428 3296 1424 l 3296 -256 b 3224 -326 3296 -322 3290 -326 l 528 -326 b 456 -256 461 -326 456 -322 z m 69 1586 l 69 -635 l 69 -643 b 172 -739 69 -739 71 -739 l 3613 -739 b 3715 -643 3714 -739 3715 -739 l 3715 -635 l 3715 1586 l 3715 1594 b 3613 1690 3715 1690 3714 1690 l 172 1690 b 69 1594 71 1690 69 1690 z m 147 -685 l 461 -376 l 3288 -376 l 3640 -685 z m 122 -676 l 122 1624 l 378 1349 l 378 -268 z m 3663 -676 l 3365 -268 l 3365 1369 l 3663 1624 z m 136 1628 l 3632 1628 l 3240 1482 l 528 1482 z "},"l":{"ha":4278,"x_min":0,"x_max":0,"o":"m 3438 556 l 3438 0 l 3510 0 l 3510 556 z m 3046 556 l 3046 0 l 3417 261 z m 136 1628 l 4118 1628 l 3726 1482 l 528 1482 z m 4149 -676 l 3851 -268 l 3851 1369 l 4149 1624 z m 122 -676 l 122 1624 l 378 1349 l 378 -268 z m 147 -685 l 461 -376 l 3774 -376 l 4126 -685 z m 69 1586 l 69 -635 l 69 -643 b 172 -739 69 -739 71 -739 l 4099 -739 b 4201 -643 4200 -739 4201 -739 l 4201 -635 l 4201 1586 l 4201 1594 b 4099 1690 4201 1690 4200 1690 l 172 1690 b 69 1594 71 1690 69 1690 z m 456 1357 b 528 1428 456 1424 461 1428 l 3710 1428 b 3782 1357 3776 1428 3782 1424 l 3782 -256 b 3710 -326 3782 -322 3776 -326 l 528 -326 b 456 -256 461 -326 456 -322 z m 1719 1 l 1719 251 b 1572 425 1719 350 1678 425 b 1431 360 1518 425 1464 406 l 1431 417 l 1363 417 l 1363 1 l 1431 1 l 1431 236 b 1556 365 1432 315 1482 365 b 1653 250 1628 365 1653 324 l 1653 1 z m 1211 633 b 1171 590 1189 633 1171 613 b 1211 547 1171 568 1189 547 b 1251 590 1233 547 1251 568 b 1211 633 1251 613 1233 633 z m 1244 0 l 1244 413 l 1176 413 l 1176 0 z m 1083 567 l 1083 633 l 749 633 l 749 0 l 818 0 l 818 306 l 1057 306 l 1057 372 l 818 372 l 818 567 z "},"m":{"ha":3792,"x_min":0,"x_max":0,"o":"m 2500 625 l 2778 -137 l 3042 625 z m 1650 17 b 1781 -71 1728 17 1781 -21 b 1650 -157 1781 -121 1728 -157 b 1529 -71 1572 -157 1529 -121 b 1650 17 1529 -21 1572 17 z m 1650 75 b 1628 74 1643 75 1636 75 b 1546 117 1583 74 1546 99 b 1586 143 1546 136 1568 143 l 1592 143 b 1663 128 1607 131 1650 128 b 1806 278 1742 128 1806 194 b 1775 367 1806 311 1793 342 l 1842 367 l 1842 418 l 1726 418 b 1667 428 1708 424 1682 428 b 1519 278 1588 426 1522 360 b 1558 176 1519 239 1533 201 b 1496 111 1529 171 1496 150 b 1546 49 1496 86 1513 63 b 1461 -69 1493 22 1461 -22 b 1650 -214 1461 -143 1536 -214 b 1858 -71 1764 -214 1858 -144 b 1650 75 1858 25 1746 75 z m 1663 369 b 1751 279 1713 369 1751 329 b 1663 189 1751 229 1713 189 b 1574 279 1613 189 1574 229 b 1663 369 1574 329 1613 369 z m 2290 218 l 2290 224 b 2106 433 2290 343 2242 431 b 1915 213 1983 433 1915 326 b 2118 0 1915 88 1992 0 b 2276 31 2175 0 2226 11 l 2276 100 b 2122 61 2211 68 2201 61 b 1986 210 2038 61 1986 111 l 1986 218 z m 2224 274 l 1988 274 b 2106 375 1996 329 2036 375 b 2224 274 2176 375 2224 331 z m 1028 444 b 832 633 1028 572 957 633 l 654 633 l 654 0 l 722 0 l 722 257 l 832 257 b 1028 444 956 257 1028 315 z m 960 444 b 832 321 958 365 914 321 l 722 321 l 722 571 l 832 571 b 960 444 910 569 960 529 z m 1421 -1 l 1421 235 b 1246 422 1421 354 1369 422 b 1107 394 1201 422 1146 408 l 1107 326 b 1240 364 1149 350 1183 364 b 1357 261 1307 363 1357 331 l 1261 261 b 1078 118 1164 261 1078 225 b 1213 -11 1079 33 1128 -11 b 1357 53 1271 -11 1325 11 l 1357 -1 z m 1357 192 b 1232 46 1357 111 1319 46 b 1140 125 1182 46 1140 69 b 1289 204 1140 204 1218 204 l 1357 204 z m 456 1357 b 528 1428 456 1424 461 1428 l 3224 1428 b 3296 1357 3290 1428 3296 1424 l 3296 -256 b 3224 -326 3296 -322 3290 -326 l 528 -326 b 456 -256 461 -326 456 -322 z m 69 1586 l 69 -635 l 69 -643 b 172 -739 69 -739 71 -739 l 3613 -739 b 3715 -643 3714 -739 3715 -739 l 3715 -635 l 3715 1586 l 3715 1594 b 3613 1690 3715 1690 3714 1690 l 172 1690 b 69 1594 71 1690 69 1690 z m 147 -685 l 461 -376 l 3288 -376 l 3640 -685 z m 122 -676 l 122 1624 l 378 1349 l 378 -268 z m 3663 -676 l 3365 -268 l 3365 1369 l 3663 1624 z m 136 1628 l 3632 1628 l 3240 1482 l 528 1482 z "},"n":{"ha":3792,"x_min":0,"x_max":0,"o":"m 2500 -137 l 3042 -137 l 2778 625 z m 1650 17 b 1781 -71 1728 17 1781 -21 b 1650 -157 1781 -121 1728 -157 b 1529 -71 1572 -157 1529 -121 b 1650 17 1529 -21 1572 17 z m 1650 75 b 1628 74 1643 75 1636 75 b 1546 117 1583 74 1546 99 b 1586 143 1546 136 1568 143 l 1592 143 b 1663 128 1607 131 1650 128 b 1806 278 1742 128 1806 194 b 1775 367 1806 311 1793 342 l 1842 367 l 1842 418 l 1726 418 b 1667 428 1708 424 1682 428 b 1519 278 1588 426 1522 360 b 1558 176 1519 239 1533 201 b 1496 111 1529 171 1496 150 b 1546 49 1496 86 1513 63 b 1461 -69 1493 22 1461 -22 b 1650 -214 1461 -143 1536 -214 b 1858 -71 1764 -214 1858 -144 b 1650 75 1858 25 1746 75 z m 1663 369 b 1751 279 1713 369 1751 329 b 1663 189 1751 229 1713 189 b 1574 279 1613 189 1574 229 b 1663 369 1574 329 1613 369 z m 2290 218 l 2290 224 b 2106 433 2290 343 2242 431 b 1915 213 1983 433 1915 326 b 2118 0 1915 88 1992 0 b 2276 31 2175 0 2226 11 l 2276 100 b 2122 61 2211 68 2201 61 b 1986 210 2038 61 1986 111 l 1986 218 z m 2224 274 l 1988 274 b 2106 375 1996 329 2036 375 b 2224 274 2176 375 2224 331 z m 1028 444 b 832 633 1028 572 957 633 l 654 633 l 654 0 l 722 0 l 722 257 l 832 257 b 1028 444 956 257 1028 315 z m 960 444 b 832 321 958 365 914 321 l 722 321 l 722 571 l 832 571 b 960 444 910 569 960 529 z m 1421 -1 l 1421 235 b 1246 422 1421 354 1369 422 b 1107 394 1201 422 1146 408 l 1107 326 b 1240 364 1149 350 1183 364 b 1357 261 1307 363 1357 331 l 1261 261 b 1078 118 1164 261 1078 225 b 1213 -11 1079 33 1128 -11 b 1357 53 1271 -11 1325 11 l 1357 -1 z m 1357 192 b 1232 46 1357 111 1319 46 b 1140 125 1182 46 1140 69 b 1289 204 1140 204 1218 204 l 1357 204 z m 456 1357 b 528 1428 456 1424 461 1428 l 3224 1428 b 3296 1357 3290 1428 3296 1424 l 3296 -256 b 3224 -326 3296 -322 3290 -326 l 528 -326 b 456 -256 461 -326 456 -322 z m 69 1586 l 69 -635 l 69 -643 b 172 -739 69 -739 71 -739 l 3613 -739 b 3715 -643 3714 -739 3715 -739 l 3715 -635 l 3715 1586 l 3715 1594 b 3613 1690 3715 1690 3714 1690 l 172 1690 b 69 1594 71 1690 69 1690 z m 147 -685 l 461 -376 l 3288 -376 l 3640 -685 z m 122 -676 l 122 1624 l 378 1349 l 378 -268 z m 3663 -676 l 3365 -268 l 3365 1369 l 3663 1624 z m 136 1628 l 3632 1628 l 3240 1482 l 528 1482 z "},"o":{"ha":2625,"x_min":0,"x_max":0,"o":"m 1244 699 l 1244 1332 l 1168 1332 l 1079 1258 l 1119 1214 l 1174 1264 l 1174 699 z m 981 1267 l 981 1333 l 646 1333 l 646 700 l 715 700 l 715 1006 l 954 1006 l 954 1072 l 715 1072 l 715 1267 z m 456 1357 b 528 1428 456 1424 461 1428 l 2064 1428 b 2136 1357 2131 1428 2136 1424 l 2136 -256 b 2064 -326 2136 -322 2131 -326 l 528 -326 b 456 -256 461 -326 456 -322 z m 69 1586 l 69 -635 l 69 -643 b 172 -739 69 -739 71 -739 l 2453 -739 b 2556 -643 2554 -739 2556 -739 l 2556 -635 l 2556 1586 l 2556 1594 b 2453 1690 2556 1690 2554 1690 l 172 1690 b 69 1594 71 1690 69 1690 z m 147 -685 l 461 -376 l 2128 -376 l 2481 -685 z m 122 -676 l 122 1624 l 378 1349 l 378 -268 z m 2503 -676 l 2206 -268 l 2206 1369 l 2503 1624 z m 136 1628 l 2472 1628 l 2081 1482 l 528 1482 z "},"p":{"ha":2625,"x_min":0,"x_max":0,"o":"m 1053 688 l 1421 688 l 1421 753 l 1181 753 l 1354 997 b 1417 1153 1386 1047 1417 1086 b 1221 1332 1417 1269 1331 1332 b 1056 1283 1160 1332 1096 1306 l 1056 1211 b 1222 1268 1107 1244 1158 1268 b 1351 1149 1293 1268 1351 1224 b 1278 1001 1351 1099 1307 1040 b 1053 688 1267 986 1068 704 z m 979 1267 l 979 1333 l 644 1333 l 644 700 l 714 700 l 714 1006 l 953 1006 l 953 1072 l 714 1072 l 714 1267 z m 456 1357 b 528 1428 456 1424 461 1428 l 2064 1428 b 2136 1357 2131 1428 2136 1424 l 2136 -256 b 2064 -326 2136 -322 2131 -326 l 528 -326 b 456 -256 461 -326 456 -322 z m 69 1586 l 69 -635 l 69 -643 b 172 -739 69 -739 71 -739 l 2453 -739 b 2556 -643 2554 -739 2556 -739 l 2556 -635 l 2556 1586 l 2556 1594 b 2453 1690 2556 1690 2554 1690 l 172 1690 b 69 1594 71 1690 69 1690 z m 147 -685 l 461 -376 l 2128 -376 l 2481 -685 z m 122 -676 l 122 1624 l 378 1349 l 378 -268 z m 2503 -676 l 2206 -268 l 2206 1369 l 2503 1624 z m 136 1628 l 2472 1628 l 2081 1482 l 528 1482 z "},"q":{"ha":2625,"x_min":0,"x_max":0,"o":"m 1451 879 b 1328 1038 1451 950 1410 1015 b 1438 1181 1397 1063 1438 1114 b 1246 1342 1438 1292 1347 1342 b 1088 1315 1194 1342 1133 1331 l 1088 1246 b 1238 1278 1138 1264 1178 1278 b 1372 1169 1313 1278 1372 1249 b 1240 1065 1371 1096 1313 1065 l 1172 1065 l 1172 1003 l 1238 1003 b 1386 879 1319 1003 1386 967 b 1221 749 1386 775 1315 749 b 1069 792 1154 749 1115 760 l 1069 714 b 1224 683 1117 697 1169 683 b 1451 879 1351 683 1451 740 z m 981 1267 l 981 1333 l 646 1333 l 646 700 l 715 700 l 715 1006 l 954 1006 l 954 1072 l 715 1072 l 715 1267 z m 456 1357 b 528 1428 456 1424 461 1428 l 2064 1428 b 2136 1357 2131 1428 2136 1424 l 2136 -256 b 2064 -326 2136 -322 2131 -326 l 528 -326 b 456 -256 461 -326 456 -322 z m 69 1586 l 69 -635 l 69 -643 b 172 -739 69 -739 71 -739 l 2453 -739 b 2556 -643 2554 -739 2556 -739 l 2556 -635 l 2556 1586 l 2556 1594 b 2453 1690 2556 1690 2554 1690 l 172 1690 b 69 1594 71 1690 69 1690 z m 147 -685 l 461 -376 l 2128 -376 l 2481 -685 z m 122 -676 l 122 1624 l 378 1349 l 378 -268 z m 2503 -676 l 2206 -268 l 2206 1369 l 2503 1624 z m 136 1628 l 2472 1628 l 2081 1482 l 528 1482 z "},"r":{"ha":2625,"x_min":0,"x_max":0,"o":"m 1244 915 l 1063 915 l 1244 1190 z m 1399 851 l 1399 915 l 1313 915 l 1313 1333 l 1278 1333 l 976 878 l 976 851 l 1244 851 l 1244 700 l 1313 700 l 1313 851 z m 981 1267 l 981 1333 l 646 1333 l 646 700 l 715 700 l 715 1006 l 954 1006 l 954 1072 l 715 1072 l 715 1267 z m 456 1357 b 528 1428 456 1424 461 1428 l 2064 1428 b 2136 1357 2131 1428 2136 1424 l 2136 -256 b 2064 -326 2136 -322 2131 -326 l 528 -326 b 456 -256 461 -326 456 -322 z m 69 1586 l 69 -635 l 69 -643 b 172 -739 69 -739 71 -739 l 2453 -739 b 2556 -643 2554 -739 2556 -739 l 2556 -635 l 2556 1586 l 2556 1594 b 2453 1690 2556 1690 2554 1690 l 172 1690 b 69 1594 71 1690 69 1690 z m 147 -685 l 461 -376 l 2128 -376 l 2481 -685 z m 122 -676 l 122 1624 l 378 1349 l 378 -268 z m 2503 -676 l 2206 -268 l 2206 1369 l 2503 1624 z m 136 1628 l 2472 1628 l 2081 1482 l 528 1482 z "},"s":{"ha":2625,"x_min":0,"x_max":0,"o":"m 1406 900 b 1194 1114 1404 1029 1324 1114 l 1117 1114 l 1117 1267 l 1363 1267 l 1363 1333 l 1054 1333 l 1054 1049 l 1181 1049 b 1340 900 1274 1049 1340 997 b 1181 751 1340 799 1275 751 b 1029 793 1118 751 1075 765 l 1029 713 b 1182 686 1071 697 1132 686 b 1406 900 1318 686 1406 760 z m 981 1267 l 981 1333 l 646 1333 l 646 700 l 715 700 l 715 1006 l 954 1006 l 954 1072 l 715 1072 l 715 1267 z m 456 1357 b 528 1428 456 1424 461 1428 l 2064 1428 b 2136 1357 2131 1428 2136 1424 l 2136 -256 b 2064 -326 2136 -322 2131 -326 l 528 -326 b 456 -256 461 -326 456 -322 z m 69 1586 l 69 -635 l 69 -643 b 172 -739 69 -739 71 -739 l 2453 -739 b 2556 -643 2554 -739 2556 -739 l 2556 -635 l 2556 1586 l 2556 1594 b 2453 1690 2556 1690 2554 1690 l 172 1690 b 69 1594 71 1690 69 1690 z m 147 -685 l 461 -376 l 2128 -376 l 2481 -685 z m 122 -676 l 122 1624 l 378 1349 l 378 -268 z m 2503 -676 l 2206 -268 l 2206 1369 l 2503 1624 z m 136 1628 l 2472 1628 l 2081 1482 l 528 1482 z "},"t":{"ha":2625,"x_min":0,"x_max":0,"o":"m 1036 972 l 1036 963 b 1244 676 1036 775 1086 676 b 1438 879 1353 678 1438 758 b 1249 1093 1438 1000 1375 1093 b 1106 1031 1190 1090 1149 1081 b 1357 1276 1108 1208 1232 1276 l 1363 1276 l 1363 1333 b 1036 972 1207 1332 1036 1251 z m 1108 879 b 1244 1033 1110 967 1156 1033 b 1372 879 1332 1033 1372 964 b 1244 736 1372 794 1332 736 b 1108 879 1158 736 1108 792 z m 981 1267 l 981 1333 l 646 1333 l 646 700 l 715 700 l 715 1006 l 954 1006 l 954 1072 l 715 1072 l 715 1267 z m 456 1357 b 528 1428 456 1424 461 1428 l 2064 1428 b 2136 1357 2131 1428 2136 1424 l 2136 -256 b 2064 -326 2136 -322 2131 -326 l 528 -326 b 456 -256 461 -326 456 -322 z m 69 1586 l 69 -635 l 69 -643 b 172 -739 69 -739 71 -739 l 2453 -739 b 2556 -643 2554 -739 2556 -739 l 2556 -635 l 2556 1586 l 2556 1594 b 2453 1690 2556 1690 2554 1690 l 172 1690 b 69 1594 71 1690 69 1690 z m 147 -685 l 461 -376 l 2128 -376 l 2481 -685 z m 122 -676 l 122 1624 l 378 1349 l 378 -268 z m 2503 -676 l 2206 -268 l 2206 1369 l 2503 1624 z m 136 1628 l 2472 1628 l 2081 1482 l 528 1482 z "},"u":{"ha":2625,"x_min":0,"x_max":0,"o":"m 1429 1301 l 1429 1333 l 1056 1333 l 1056 1267 l 1344 1267 l 1139 700 l 1211 700 z m 981 1267 l 981 1333 l 646 1333 l 646 700 l 715 700 l 715 1006 l 954 1006 l 954 1072 l 715 1072 l 715 1267 z m 456 1357 b 528 1428 456 1424 461 1428 l 2064 1428 b 2136 1357 2131 1428 2136 1424 l 2136 -256 b 2064 -326 2136 -322 2131 -326 l 528 -326 b 456 -256 461 -326 456 -322 z m 69 1586 l 69 -635 l 69 -643 b 172 -739 69 -739 71 -739 l 2453 -739 b 2556 -643 2554 -739 2556 -739 l 2556 -635 l 2556 1586 l 2556 1594 b 2453 1690 2556 1690 2554 1690 l 172 1690 b 69 1594 71 1690 69 1690 z m 147 -685 l 461 -376 l 2128 -376 l 2481 -685 z m 122 -676 l 122 1624 l 378 1349 l 378 -268 z m 2503 -676 l 2206 -268 l 2206 1369 l 2503 1624 z m 136 1628 l 2472 1628 l 2081 1482 l 528 1482 z "},"v":{"ha":2625,"x_min":0,"x_max":0,"o":"m 1385 874 b 1251 744 1385 789 1331 744 b 1117 874 1169 744 1117 788 b 1251 1001 1117 958 1169 1001 b 1385 874 1333 1001 1385 956 z m 1371 1171 b 1251 1063 1371 1104 1317 1063 l 1249 1063 b 1129 1171 1185 1063 1131 1111 b 1251 1282 1135 1253 1181 1282 b 1371 1171 1314 1282 1367 1256 z m 1449 874 b 1335 1033 1447 947 1413 1006 b 1438 1171 1393 1060 1438 1100 b 1251 1342 1436 1281 1353 1342 b 1065 1171 1150 1342 1065 1281 b 1178 1033 1065 1094 1104 1060 b 1051 874 1096 1008 1051 950 b 1251 683 1051 746 1129 683 b 1449 874 1374 683 1449 746 z m 981 1267 l 981 1333 l 646 1333 l 646 700 l 715 700 l 715 1006 l 954 1006 l 954 1072 l 715 1072 l 715 1267 z m 456 1357 b 528 1428 456 1424 461 1428 l 2064 1428 b 2136 1357 2131 1428 2136 1424 l 2136 -256 b 2064 -326 2136 -322 2131 -326 l 528 -326 b 456 -256 461 -326 456 -322 z m 69 1586 l 69 -635 l 69 -643 b 172 -739 69 -739 71 -739 l 2453 -739 b 2556 -643 2554 -739 2556 -739 l 2556 -635 l 2556 1586 l 2556 1594 b 2453 1690 2556 1690 2554 1690 l 172 1690 b 69 1594 71 1690 69 1690 z m 147 -685 l 461 -376 l 2128 -376 l 2481 -685 z m 122 -676 l 122 1624 l 378 1349 l 378 -268 z m 2503 -676 l 2206 -268 l 2206 1369 l 2503 1624 z m 136 1628 l 2472 1628 l 2081 1482 l 528 1482 z "},"w":{"ha":2625,"x_min":0,"x_max":0,"o":"m 1382 1140 b 1246 988 1381 1053 1335 988 b 1118 1140 1158 988 1118 1056 b 1246 1283 1118 1225 1158 1283 b 1382 1140 1332 1283 1382 1228 z m 1454 1092 b 1246 1343 1454 1225 1406 1343 b 1053 1140 1138 1342 1053 1261 b 1242 928 1053 1019 1115 928 b 1368 974 1300 931 1332 939 b 1164 731 1364 882 1249 771 l 1206 693 b 1454 1092 1313 733 1454 875 z m 981 1267 l 981 1333 l 646 1333 l 646 700 l 715 700 l 715 1006 l 954 1006 l 954 1072 l 715 1072 l 715 1267 z m 456 1357 b 528 1428 456 1424 461 1428 l 2064 1428 b 2136 1357 2131 1428 2136 1424 l 2136 -256 b 2064 -326 2136 -322 2131 -326 l 528 -326 b 456 -256 461 -326 456 -322 z m 69 1586 l 69 -635 l 69 -643 b 172 -739 69 -739 71 -739 l 2453 -739 b 2556 -643 2554 -739 2556 -739 l 2556 -635 l 2556 1586 l 2556 1594 b 2453 1690 2556 1690 2554 1690 l 172 1690 b 69 1594 71 1690 69 1690 z m 147 -685 l 461 -376 l 2128 -376 l 2481 -685 z m 122 -676 l 122 1624 l 378 1349 l 378 -268 z m 2503 -676 l 2206 -268 l 2206 1369 l 2503 1624 z m 136 1628 l 2472 1628 l 2081 1482 l 528 1482 z "},"x":{"ha":2625,"x_min":0,"x_max":0,"o":"m 1626 1011 b 1489 744 1626 924 1617 744 b 1354 1011 1358 744 1354 925 b 1489 1282 1354 1097 1358 1282 b 1626 1011 1618 1282 1626 1094 z m 1690 1011 b 1489 1342 1689 1144 1660 1342 b 1289 1011 1318 1342 1289 1143 b 1489 683 1289 878 1319 683 b 1690 1011 1658 683 1690 878 z m 1244 699 l 1244 1332 l 1168 1332 l 1079 1258 l 1119 1214 l 1174 1264 l 1174 699 z m 981 1267 l 981 1333 l 646 1333 l 646 700 l 715 700 l 715 1006 l 954 1006 l 954 1072 l 715 1072 l 715 1267 z m 456 1357 b 528 1428 456 1424 461 1428 l 2064 1428 b 2136 1357 2131 1428 2136 1424 l 2136 -256 b 2064 -326 2136 -322 2131 -326 l 528 -326 b 456 -256 461 -326 456 -322 z m 69 1586 l 69 -635 l 69 -643 b 172 -739 69 -739 71 -739 l 2453 -739 b 2556 -643 2554 -739 2556 -739 l 2556 -635 l 2556 1586 l 2556 1594 b 2453 1690 2556 1690 2554 1690 l 172 1690 b 69 1594 71 1690 69 1690 z m 147 -685 l 461 -376 l 2128 -376 l 2481 -685 z m 122 -676 l 122 1624 l 378 1349 l 378 -268 z m 2503 -676 l 2206 -268 l 2206 1369 l 2503 1624 z m 136 1628 l 2472 1628 l 2081 1482 l 528 1482 z "},"y":{"ha":2625,"x_min":0,"x_max":0,"o":"m 1247 699 l 1247 1332 l 1171 1332 l 1082 1258 l 1122 1214 l 1176 1264 l 1176 699 z m 1489 699 l 1489 1332 l 1413 1332 l 1324 1258 l 1364 1214 l 1418 1264 l 1418 699 z m 1021 1267 l 1021 1333 l 686 1333 l 686 700 l 756 700 l 756 1006 l 994 1006 l 994 1072 l 756 1072 l 756 1267 z m 456 1357 b 528 1428 456 1424 461 1428 l 2064 1428 b 2136 1357 2131 1428 2136 1424 l 2136 -256 b 2064 -326 2136 -322 2131 -326 l 528 -326 b 456 -256 461 -326 456 -322 z m 69 1586 l 69 -635 l 69 -643 b 172 -739 69 -739 71 -739 l 2453 -739 b 2556 -643 2554 -739 2556 -739 l 2556 -635 l 2556 1586 l 2556 1594 b 2453 1690 2556 1690 2554 1690 l 172 1690 b 69 1594 71 1690 69 1690 z m 147 -685 l 461 -376 l 2128 -376 l 2481 -685 z m 122 -676 l 122 1624 l 378 1349 l 378 -268 z m 2503 -676 l 2206 -268 l 2206 1369 l 2503 1624 z m 136 1628 l 2472 1628 l 2081 1482 l 528 1482 z "},"z":{"ha":2625,"x_min":0,"x_max":0,"o":"m 1317 700 l 1685 700 l 1685 765 l 1444 765 l 1618 1010 b 1681 1165 1650 1060 1681 1099 b 1485 1344 1681 1282 1594 1344 b 1319 1296 1424 1344 1360 1318 l 1319 1224 b 1486 1281 1371 1257 1422 1281 b 1615 1161 1557 1281 1615 1236 b 1542 1014 1615 1111 1571 1053 b 1317 700 1531 999 1332 717 z m 1244 699 l 1244 1332 l 1168 1332 l 1079 1258 l 1119 1214 l 1174 1264 l 1174 699 z m 981 1267 l 981 1333 l 646 1333 l 646 700 l 715 700 l 715 1006 l 954 1006 l 954 1072 l 715 1072 l 715 1267 z m 456 1357 b 528 1428 456 1424 461 1428 l 2064 1428 b 2136 1357 2131 1428 2136 1424 l 2136 -256 b 2064 -326 2136 -322 2131 -326 l 528 -326 b 456 -256 461 -326 456 -322 z m 69 1586 l 69 -635 l 69 -643 b 172 -739 69 -739 71 -739 l 2453 -739 b 2556 -643 2554 -739 2556 -739 l 2556 -635 l 2556 1586 l 2556 1594 b 2453 1690 2556 1690 2554 1690 l 172 1690 b 69 1594 71 1690 69 1690 z m 147 -685 l 461 -376 l 2128 -376 l 2481 -685 z m 122 -676 l 122 1624 l 378 1349 l 378 -268 z m 2503 -676 l 2206 -268 l 2206 1369 l 2503 1624 z m 136 1628 l 2472 1628 l 2081 1482 l 528 1482 z "},"{":{"ha":2625,"x_min":0,"x_max":0,"o":"m 915 915 l 733 915 l 915 1190 z m 1069 851 l 1069 915 l 983 915 l 983 1333 l 949 1333 l 647 878 l 647 851 l 915 851 l 915 700 l 983 700 l 983 851 z m 1665 19 l 1665 126 b 1585 265 1665 219 1644 246 b 1665 404 1654 292 1665 331 l 1665 511 b 1765 614 1667 599 1688 614 l 1788 614 l 1788 667 l 1768 667 b 1638 636 1703 665 1660 657 b 1607 513 1617 617 1607 574 l 1607 410 b 1497 293 1607 319 1571 293 l 1478 293 l 1478 239 l 1497 239 b 1607 121 1575 239 1607 211 l 1607 18 b 1636 -104 1607 -43 1615 -83 b 1768 -136 1660 -125 1703 -136 l 1788 -136 l 1788 -82 l 1765 -82 b 1665 19 1692 -81 1665 -69 z m 996 596 l 900 596 l 900 428 l 921 285 l 974 285 b 996 596 997 385 994 486 z m 456 1357 b 528 1428 456 1424 461 1428 l 2064 1428 b 2136 1357 2131 1428 2136 1424 l 2136 -256 b 2064 -326 2136 -322 2131 -326 l 528 -326 b 456 -256 461 -326 456 -322 z m 69 1586 l 69 -635 l 69 -643 b 172 -739 69 -739 71 -739 l 2453 -739 b 2556 -643 2554 -739 2556 -739 l 2556 -635 l 2556 1586 l 2556 1594 b 2453 1690 2556 1690 2554 1690 l 172 1690 b 69 1594 71 1690 69 1690 z m 147 -685 l 461 -376 l 2128 -376 l 2481 -685 z m 122 -676 l 122 1624 l 378 1349 l 378 -268 z m 2503 -676 l 2206 -268 l 2206 1369 l 2503 1624 z m 136 1628 l 2472 1628 l 2081 1482 l 528 1482 z "},"|":{"ha":2625,"x_min":0,"x_max":0,"o":"m 719 972 l 719 963 b 928 676 719 775 769 676 b 1121 879 1036 678 1121 758 b 932 1093 1121 1000 1058 1093 b 789 1031 874 1090 832 1081 b 1040 1276 792 1208 915 1276 l 1046 1276 l 1046 1333 b 719 972 890 1332 719 1251 z m 792 879 b 928 1033 793 967 839 1033 b 1056 879 1015 1033 1056 964 b 928 736 1056 794 1015 736 b 792 879 842 736 792 792 z m 1729 -136 l 1729 733 l 1663 733 l 1663 -136 z m 1054 175 l 1054 267 l 738 267 l 738 175 z m 456 1357 b 528 1428 456 1424 461 1428 l 2064 1428 b 2136 1357 2131 1428 2136 1424 l 2136 -256 b 2064 -326 2136 -322 2131 -326 l 528 -326 b 456 -256 461 -326 456 -322 z m 69 1586 l 69 -635 l 69 -643 b 172 -739 69 -739 71 -739 l 2453 -739 b 2556 -643 2554 -739 2556 -739 l 2556 -635 l 2556 1586 l 2556 1594 b 2453 1690 2556 1690 2554 1690 l 172 1690 b 69 1594 71 1690 69 1690 z m 147 -685 l 461 -376 l 2128 -376 l 2481 -685 z m 122 -676 l 122 1624 l 378 1349 l 378 -268 z m 2503 -676 l 2206 -268 l 2206 1369 l 2503 1624 z m 136 1628 l 2472 1628 l 2081 1482 l 528 1482 z "},"}":{"ha":2625,"x_min":0,"x_max":0,"o":"m 1746 428 l 1746 321 b 1763 229 1746 276 1750 247 b 1828 182 1772 208 1789 194 b 1746 43 1763 161 1746 133 l 1746 -64 b 1647 -165 1746 -149 1724 -165 l 1625 -165 l 1625 -219 l 1644 -219 b 1772 -187 1708 -219 1750 -208 b 1804 -65 1793 -167 1804 -126 l 1804 38 b 1914 156 1804 132 1838 156 l 1932 156 l 1932 210 l 1914 210 b 1828 235 1872 210 1844 218 b 1804 326 1813 253 1804 285 l 1804 429 b 1772 553 1804 490 1793 533 b 1644 583 1750 574 1708 583 l 1625 583 l 1625 531 l 1647 531 b 1746 428 1722 529 1746 514 z m 1188 226 l 1188 283 l 711 283 l 711 226 z m 1188 69 l 1188 128 l 711 128 l 711 69 z m 1197 964 l 1197 1021 l 988 1021 l 988 1229 l 935 1229 l 935 1021 l 722 1021 l 722 964 l 935 964 l 935 756 l 988 756 l 988 964 z m 456 1357 b 528 1428 456 1424 461 1428 l 2064 1428 b 2136 1357 2131 1428 2136 1424 l 2136 -256 b 2064 -326 2136 -322 2131 -326 l 528 -326 b 456 -256 461 -326 456 -322 z m 69 1586 l 69 -635 l 69 -643 b 172 -739 69 -739 71 -739 l 2453 -739 b 2556 -643 2554 -739 2556 -739 l 2556 -635 l 2556 1586 l 2556 1594 b 2453 1690 2556 1690 2554 1690 l 172 1690 b 69 1594 71 1690 69 1690 z m 147 -685 l 461 -376 l 2128 -376 l 2481 -685 z m 122 -676 l 122 1624 l 378 1349 l 378 -268 z m 2503 -676 l 2206 -268 l 2206 1369 l 2503 1624 z m 136 1628 l 2472 1628 l 2081 1482 l 528 1482 z "},"~":{"ha":2625,"x_min":0,"x_max":0,"o":"m 1953 81 l 1953 142 b 1890 94 1926 118 1906 106 b 1822 79 1868 86 1844 79 b 1725 104 1797 79 1764 89 b 1617 132 1700 117 1638 132 b 1549 119 1592 132 1571 128 b 1478 76 1526 110 1503 97 l 1478 13 b 1540 61 1501 38 1522 54 b 1608 76 1563 72 1586 76 l 1611 76 b 1719 47 1669 76 1718 47 b 1814 24 1756 31 1786 24 b 1881 36 1836 25 1858 29 b 1953 81 1901 46 1928 60 z m 799 688 l 1167 688 l 1167 753 l 926 753 l 1100 997 b 1163 1153 1132 1047 1163 1086 b 967 1332 1163 1269 1076 1332 b 801 1283 906 1332 842 1306 l 801 1211 b 968 1268 853 1244 904 1268 b 1097 1149 1039 1268 1097 1224 b 1024 1001 1097 1099 1053 1040 b 799 688 1013 986 814 704 z m 1056 136 l 821 136 b 938 238 829 192 868 238 b 1056 136 1008 238 1056 193 z m 1122 81 l 1122 86 b 938 296 1122 206 1074 293 b 747 75 815 296 747 189 b 950 -137 747 -50 824 -137 b 1122 -83 1007 -137 1085 -119 l 1122 -14 b 954 -76 1076 -54 1033 -76 b 818 72 869 -76 818 -26 l 818 81 z m 1057 490 l 976 490 l 861 351 l 922 351 z m 456 1357 b 528 1428 456 1424 461 1428 l 2064 1428 b 2136 1357 2131 1428 2136 1424 l 2136 -256 b 2064 -326 2136 -322 2131 -326 l 528 -326 b 456 -256 461 -326 456 -322 z m 69 1586 l 69 -635 l 69 -643 b 172 -739 69 -739 71 -739 l 2453 -739 b 2556 -643 2554 -739 2556 -739 l 2556 -635 l 2556 1586 l 2556 1594 b 2453 1690 2556 1690 2554 1690 l 172 1690 b 69 1594 71 1690 69 1690 z m 147 -685 l 461 -376 l 2128 -376 l 2481 -685 z m 122 -676 l 122 1624 l 378 1349 l 378 -268 z m 2503 -676 l 2206 -268 l 2206 1369 l 2503 1624 z m 136 1628 l 2472 1628 l 2081 1482 l 528 1482 z "},"":{"ha":2625,"x_min":0,"x_max":0,"o":"m 1946 -56 l 1860 35 b 1892 136 1878 71 1892 92 b 1863 240 1892 178 1881 204 l 1946 329 l 1908 375 l 1824 283 b 1728 315 1799 299 1758 315 b 1633 283 1692 315 1660 301 l 1549 372 l 1511 328 l 1596 238 b 1563 136 1578 207 1563 175 b 1594 33 1563 100 1579 64 l 1511 -56 l 1549 -101 l 1631 -10 b 1728 -44 1651 -25 1700 -44 b 1824 -10 1761 -44 1799 -28 l 1908 -99 z m 1846 136 b 1728 0 1846 68 1794 0 b 1610 136 1661 0 1610 67 b 1726 268 1611 206 1663 268 b 1846 136 1790 268 1846 206 z m 1029 1238 l 1029 1308 b 918 1332 1001 1321 944 1332 b 746 1119 781 1332 746 1242 l 746 1014 l 665 1014 l 665 960 l 746 960 l 746 753 l 651 753 l 651 688 l 1038 688 l 1038 753 l 814 753 l 814 960 l 971 960 l 971 1014 l 814 1014 l 814 1111 b 836 1239 814 1174 822 1214 b 926 1272 854 1260 882 1272 b 1029 1238 978 1272 997 1256 z m 858 410 l 858 511 l 829 511 l 829 410 b 658 257 733 403 658 358 b 829 107 658 161 742 122 l 829 -96 b 658 -40 746 -93 717 -83 l 658 -111 b 829 -150 700 -129 778 -150 l 829 -279 l 858 -279 l 858 -150 b 1033 11 960 -140 1033 -96 b 858 165 1033 117 957 150 l 858 356 b 938 346 888 354 914 350 b 1000 317 958 339 976 331 l 1000 385 b 863 410 924 410 888 410 z m 829 172 b 719 264 765 185 719 200 b 829 356 719 328 763 349 z m 975 3 b 858 -94 974 -64 929 -82 l 858 99 b 975 3 919 85 975 72 z m 456 1357 b 528 1428 456 1424 461 1428 l 2064 1428 b 2136 1357 2131 1428 2136 1424 l 2136 -256 b 2064 -326 2136 -322 2131 -326 l 528 -326 b 456 -256 461 -326 456 -322 z m 69 1586 l 69 -635 l 69 -643 b 172 -739 69 -739 71 -739 l 2453 -739 b 2556 -643 2554 -739 2556 -739 l 2556 -635 l 2556 1586 l 2556 1594 b 2453 1690 2556 1690 2554 1690 l 172 1690 b 69 1594 71 1690 69 1690 z m 147 -685 l 461 -376 l 2128 -376 l 2481 -685 z m 122 -676 l 122 1624 l 378 1349 l 378 -268 z m 2503 -676 l 2206 -268 l 2206 1369 l 2503 1624 z m 136 1628 l 2472 1628 l 2081 1482 l 528 1482 z "},"":{"ha":2625,"x_min":0,"x_max":0,"o":"m 1946 -56 l 1860 35 b 1892 136 1878 71 1892 92 b 1863 240 1892 178 1881 204 l 1946 329 l 1908 375 l 1824 283 b 1728 315 1799 299 1758 315 b 1633 283 1692 315 1660 301 l 1549 372 l 1511 328 l 1596 238 b 1563 136 1578 207 1563 175 b 1594 33 1563 100 1579 64 l 1511 -56 l 1549 -101 l 1631 -10 b 1728 -44 1651 -25 1700 -44 b 1824 -10 1761 -44 1799 -28 l 1908 -99 z m 1846 136 b 1728 0 1846 68 1794 0 b 1610 136 1661 0 1610 67 b 1726 268 1611 206 1663 268 b 1846 136 1790 268 1846 206 z m 1029 1238 l 1029 1308 b 918 1332 1001 1321 944 1332 b 746 1119 781 1332 746 1242 l 746 1014 l 665 1014 l 665 960 l 746 960 l 746 753 l 651 753 l 651 688 l 1038 688 l 1038 753 l 814 753 l 814 960 l 971 960 l 971 1014 l 814 1014 l 814 1111 b 836 1239 814 1174 822 1214 b 926 1272 854 1260 882 1272 b 1029 1238 978 1272 997 1256 z m 858 410 l 858 511 l 829 511 l 829 410 b 658 257 733 403 658 358 b 829 107 658 161 742 122 l 829 -96 b 658 -40 746 -93 717 -83 l 658 -111 b 829 -150 700 -129 778 -150 l 829 -279 l 858 -279 l 858 -150 b 1033 11 960 -140 1033 -96 b 858 165 1033 117 957 150 l 858 356 b 938 346 888 354 914 350 b 1000 317 958 339 976 331 l 1000 385 b 863 410 924 410 888 410 z m 829 172 b 719 264 765 185 719 200 b 829 356 719 328 763 349 z m 975 3 b 858 -94 974 -64 929 -82 l 858 99 b 975 3 919 85 975 72 z m 456 1357 b 528 1428 456 1424 461 1428 l 2064 1428 b 2136 1357 2131 1428 2136 1424 l 2136 -256 b 2064 -326 2136 -322 2131 -326 l 528 -326 b 456 -256 461 -326 456 -322 z m 69 1586 l 69 -635 l 69 -643 b 172 -739 69 -739 71 -739 l 2453 -739 b 2556 -643 2554 -739 2556 -739 l 2556 -635 l 2556 1586 l 2556 1594 b 2453 1690 2556 1690 2554 1690 l 172 1690 b 69 1594 71 1690 69 1690 z m 147 -685 l 461 -376 l 2128 -376 l 2481 -685 z m 122 -676 l 122 1624 l 378 1349 l 378 -268 z m 2503 -676 l 2206 -268 l 2206 1369 l 2503 1624 z m 136 1628 l 2472 1628 l 2081 1482 l 528 1482 z "},"":{"ha":2625,"x_min":0,"x_max":0,"o":"m 1411 961 b 1353 878 1411 922 1376 899 b 1182 1031 1297 906 1182 960 b 1242 1114 1185 1071 1214 1093 b 1411 961 1292 1086 1411 1029 z m 1460 974 b 1322 1132 1460 1054 1393 1089 b 1308 1142 1318 1135 1314 1138 b 1218 1233 1247 1176 1218 1207 b 1311 1303 1218 1285 1265 1303 b 1421 1269 1358 1300 1385 1286 l 1421 1333 b 1303 1356 1388 1346 1343 1356 b 1160 1235 1229 1356 1160 1317 b 1211 1140 1163 1188 1178 1165 b 1133 1017 1163 1113 1133 1075 b 1268 860 1133 935 1196 906 b 1374 753 1310 840 1374 790 b 1276 681 1374 700 1322 681 b 1163 714 1226 683 1201 693 l 1163 650 b 1288 628 1193 640 1249 628 b 1435 756 1368 628 1435 668 b 1385 853 1431 800 1418 824 b 1460 974 1432 885 1460 915 z m 1303 -139 b 1263 -182 1281 -139 1263 -160 b 1303 -225 1263 -204 1281 -225 b 1343 -182 1325 -225 1343 -204 b 1303 -139 1343 -160 1325 -139 z m 1342 139 l 1342 417 l 1264 417 l 1264 139 l 1274 -11 l 1333 -11 z m 456 1357 b 528 1428 456 1424 461 1428 l 2064 1428 b 2136 1357 2131 1428 2136 1424 l 2136 -256 b 2064 -326 2136 -322 2131 -326 l 528 -326 b 456 -256 461 -326 456 -322 z m 69 1586 l 69 -635 l 69 -643 b 172 -739 69 -739 71 -739 l 2453 -739 b 2556 -643 2554 -739 2556 -739 l 2556 -635 l 2556 1586 l 2556 1594 b 2453 1690 2556 1690 2554 1690 l 172 1690 b 69 1594 71 1690 69 1690 z m 147 -685 l 461 -376 l 2128 -376 l 2481 -685 z m 122 -676 l 122 1624 l 378 1349 l 378 -268 z m 2503 -676 l 2206 -268 l 2206 1369 l 2503 1624 z m 136 1628 l 2472 1628 l 2081 1482 l 528 1482 z "},"":{"ha":2625,"x_min":0,"x_max":0,"o":"m 892 1188 b 829 1121 857 1188 829 1158 b 892 1054 829 1083 857 1054 b 954 1121 926 1054 954 1083 b 892 1188 954 1158 926 1188 z m 1121 1188 b 1058 1121 1086 1188 1058 1158 b 1121 1054 1058 1083 1086 1054 b 1183 1121 1156 1054 1183 1083 b 1121 1188 1183 1158 1156 1188 z m 1204 139 l 1054 350 l 971 350 l 821 139 l 901 139 l 1013 272 l 1124 139 z m 456 1357 b 528 1428 456 1424 461 1428 l 2064 1428 b 2136 1357 2131 1428 2136 1424 l 2136 -256 b 2064 -326 2136 -322 2131 -326 l 528 -326 b 456 -256 461 -326 456 -322 z m 69 1586 l 69 -635 l 69 -643 b 172 -739 69 -739 71 -739 l 2453 -739 b 2556 -643 2554 -739 2556 -739 l 2556 -635 l 2556 1586 l 2556 1594 b 2453 1690 2556 1690 2554 1690 l 172 1690 b 69 1594 71 1690 69 1690 z m 147 -685 l 461 -376 l 2128 -376 l 2481 -685 z m 122 -676 l 122 1624 l 378 1349 l 378 -268 z m 2503 -676 l 2206 -268 l 2206 1369 l 2503 1624 z m 136 1628 l 2472 1628 l 2081 1482 l 528 1482 z "},"":{"ha":2625,"x_min":0,"x_max":0,"o":"m 929 1261 b 1014 1175 976 1261 1014 1222 b 929 1089 1014 1128 976 1089 b 844 1175 882 1089 844 1128 b 929 1261 844 1222 882 1261 z m 929 1332 b 774 1176 843 1332 774 1263 b 929 1021 774 1090 843 1021 b 1085 1176 1015 1021 1085 1090 b 929 1332 1085 1263 1015 1332 z m 894 -225 l 947 -225 b 1071 163 1019 -107 1071 25 b 947 549 1071 300 1018 432 l 894 549 b 1006 163 968 415 1004 315 b 894 -225 1006 13 967 -94 z m 1651 -219 l 1817 -219 l 1817 556 l 1651 556 l 1651 501 l 1751 501 l 1751 -167 l 1651 -167 z m 456 1357 b 528 1428 456 1424 461 1428 l 2064 1428 b 2136 1357 2131 1428 2136 1424 l 2136 -256 b 2064 -326 2136 -322 2131 -326 l 528 -326 b 456 -256 461 -326 456 -322 z m 69 1586 l 69 -635 l 69 -643 b 172 -739 69 -739 71 -739 l 2453 -739 b 2556 -643 2554 -739 2556 -739 l 2556 -635 l 2556 1586 l 2556 1594 b 2453 1690 2556 1690 2554 1690 l 172 1690 b 69 1594 71 1690 69 1690 z m 147 -685 l 461 -376 l 2128 -376 l 2481 -685 z m 122 -676 l 122 1624 l 378 1349 l 378 -268 z m 2503 -676 l 2206 -268 l 2206 1369 l 2503 1624 z m 136 1628 l 2472 1628 l 2081 1482 l 528 1482 z "},"":{"ha":3792,"x_min":0,"x_max":0,"o":"m 2222 644 l 2944 644 l 2944 0 l 2222 0 z m 1944 206 b 1740 411 1944 326 1863 411 l 1564 411 l 1564 -222 l 1633 -222 l 1633 -1 l 1735 -1 b 1944 206 1868 -1 1944 82 z m 1878 206 b 1735 58 1878 124 1826 58 l 1633 58 l 1633 351 l 1735 351 b 1878 206 1825 351 1878 293 z m 1481 0 l 1481 236 b 1306 424 1481 356 1429 424 b 1167 396 1261 424 1206 410 l 1167 328 b 1300 365 1208 351 1243 365 b 1417 263 1367 364 1417 332 l 1321 263 b 1138 122 1224 263 1138 229 b 1272 -10 1139 38 1188 -10 b 1417 54 1331 -10 1385 13 l 1417 0 z m 1417 193 b 1292 47 1417 113 1379 47 b 1200 126 1242 47 1200 71 b 1349 206 1200 206 1278 206 l 1417 206 z m 1054 61 l 1054 144 b 875 64 1004 89 953 64 b 656 329 717 64 656 179 b 875 597 658 478 714 597 b 1054 515 954 597 1006 571 l 1054 601 b 871 660 1001 639 940 660 b 588 329 676 660 588 513 b 871 1 588 146 678 1 b 1054 61 935 1 1006 24 z m 456 1357 b 528 1428 456 1424 461 1428 l 3224 1428 b 3296 1357 3290 1428 3296 1424 l 3296 -256 b 3224 -326 3296 -322 3290 -326 l 528 -326 b 456 -256 461 -326 456 -322 z m 69 1586 l 69 -635 l 69 -643 b 172 -739 69 -739 71 -739 l 3613 -739 b 3715 -643 3714 -739 3715 -739 l 3715 -635 l 3715 1586 l 3715 1594 b 3613 1690 3715 1690 3714 1690 l 172 1690 b 69 1594 71 1690 69 1690 z m 147 -685 l 461 -376 l 3288 -376 l 3640 -685 z m 122 -676 l 122 1624 l 378 1349 l 378 -268 z m 3663 -676 l 3365 -268 l 3365 1369 l 3663 1624 z m 136 1628 l 3632 1628 l 3240 1482 l 528 1482 z m 2301 679 l 2188 679 l 2188 -35 l 2979 -35 l 2979 679 l 2855 679 b 2576 979 2823 789 2730 979 l 2575 979 b 2301 679 2444 979 2335 820 z m 2820 678 l 2337 678 b 2575 944 2369 801 2463 944 l 2576 944 b 2820 678 2697 944 2784 792 z m 2587 228 l 2633 544 l 2500 544 l 2577 227 b 2517 161 2543 224 2517 196 b 2583 94 2517 124 2547 94 b 2650 161 2620 94 2650 124 b 2587 228 2650 197 2622 226 z "},"":{"ha":2625,"x_min":0,"x_max":0,"o":"m 1514 925 l 1514 988 b 1495 974 1501 975 1504 974 b 1489 974 1493 974 1491 974 b 1458 1015 1465 974 1458 992 l 1458 1333 l 1393 1333 l 1393 1092 b 1278 968 1393 1015 1358 968 b 1172 1076 1207 968 1172 1007 l 1172 1333 l 1104 1333 l 1104 625 l 1172 625 l 1172 960 b 1283 910 1193 932 1238 910 b 1394 963 1333 910 1372 935 b 1458 910 1404 933 1425 910 b 1514 925 1479 910 1501 917 z m 1571 -49 l 1349 79 l 1571 207 l 1546 267 l 1333 132 l 1333 379 l 1278 379 l 1278 132 l 1067 267 l 1040 207 l 1258 81 l 1040 -49 l 1067 -106 l 1278 24 l 1278 -222 l 1333 -222 l 1333 24 l 1546 -106 z m 456 1357 b 528 1428 456 1424 461 1428 l 2064 1428 b 2136 1357 2131 1428 2136 1424 l 2136 -256 b 2064 -326 2136 -322 2131 -326 l 528 -326 b 456 -256 461 -326 456 -322 z m 69 1586 l 69 -635 l 69 -643 b 172 -739 69 -739 71 -739 l 2453 -739 b 2556 -643 2554 -739 2556 -739 l 2556 -635 l 2556 1586 l 2556 1594 b 2453 1690 2556 1690 2554 1690 l 172 1690 b 69 1594 71 1690 69 1690 z m 147 -685 l 461 -376 l 2128 -376 l 2481 -685 z m 122 -676 l 122 1624 l 378 1349 l 378 -268 z m 2503 -676 l 2206 -268 l 2206 1369 l 2503 1624 z m 136 1628 l 2472 1628 l 2081 1482 l 528 1482 z "},"":{"ha":2625,"x_min":0,"x_max":0,"o":"m 929 1261 b 1014 1175 976 1261 1014 1222 b 929 1089 1014 1128 976 1089 b 844 1175 882 1089 844 1128 b 929 1261 844 1222 882 1261 z m 929 1332 b 774 1176 843 1332 774 1263 b 929 1021 774 1090 843 1021 b 1085 1176 1015 1021 1085 1090 b 929 1332 1085 1263 1015 1332 z m 894 -225 l 947 -225 b 1071 163 1019 -107 1071 25 b 947 549 1071 300 1018 432 l 894 549 b 1006 163 968 415 1004 315 b 894 -225 1006 13 967 -94 z m 1651 -219 l 1817 -219 l 1817 556 l 1651 556 l 1651 501 l 1751 501 l 1751 -167 l 1651 -167 z m 456 1357 b 528 1428 456 1424 461 1428 l 2064 1428 b 2136 1357 2131 1428 2136 1424 l 2136 -256 b 2064 -326 2136 -322 2131 -326 l 528 -326 b 456 -256 461 -326 456 -322 z m 69 1586 l 69 -635 l 69 -643 b 172 -739 69 -739 71 -739 l 2453 -739 b 2556 -643 2554 -739 2556 -739 l 2556 -635 l 2556 1586 l 2556 1594 b 2453 1690 2556 1690 2554 1690 l 172 1690 b 69 1594 71 1690 69 1690 z m 147 -685 l 461 -376 l 2128 -376 l 2481 -685 z m 122 -676 l 122 1624 l 378 1349 l 378 -268 z m 2503 -676 l 2206 -268 l 2206 1369 l 2503 1624 z m 136 1628 l 2472 1628 l 2081 1482 l 528 1482 z "},"":{"ha":2625,"x_min":0,"x_max":0,"o":"m 1086 1001 b 949 735 1086 914 1076 735 b 814 1001 818 735 814 915 b 949 1272 814 1088 818 1272 b 1086 1001 1078 1272 1086 1085 z m 1150 1001 b 949 1332 1149 1135 1119 1332 b 749 1001 778 1332 749 1133 b 949 674 749 868 779 674 b 1150 1001 1118 674 1150 868 z m 1039 339 l 924 478 l 843 478 l 978 339 z m 1113 -139 l 1113 96 b 938 283 1113 215 1061 283 b 799 256 893 283 838 269 l 799 188 b 932 225 840 211 875 225 b 1049 122 999 224 1049 192 l 953 122 b 769 -18 856 122 769 89 b 904 -150 771 -103 819 -150 b 1049 -86 963 -150 1017 -128 l 1049 -139 z m 1049 53 b 924 -93 1049 -28 1011 -93 b 832 -14 874 -93 832 -69 b 981 65 832 65 910 65 l 1049 65 z m 2011 368 b 1675 700 2011 540 1883 700 b 1313 318 1432 700 1313 511 b 1669 -64 1313 88 1474 -64 b 1894 21 1763 -62 1824 -32 l 1861 71 b 1669 -1 1806 25 1744 -1 b 1361 318 1504 -1 1361 119 b 1676 654 1361 486 1486 654 b 1960 365 1844 653 1960 508 b 1832 188 1958 276 1925 203 l 1832 500 l 1774 500 l 1774 451 b 1649 507 1751 497 1697 507 b 1497 315 1544 506 1497 411 b 1649 126 1497 222 1546 126 b 1774 182 1699 126 1749 150 l 1774 125 b 2011 368 1921 126 2011 219 z m 1774 315 b 1664 186 1772 246 1738 186 b 1556 315 1592 186 1556 246 b 1663 444 1557 386 1589 444 b 1774 315 1707 444 1774 421 z m 456 1357 b 528 1428 456 1424 461 1428 l 2064 1428 b 2136 1357 2131 1428 2136 1424 l 2136 -256 b 2064 -326 2136 -322 2131 -326 l 528 -326 b 456 -256 461 -326 456 -322 z m 69 1586 l 69 -635 l 69 -643 b 172 -739 69 -739 71 -739 l 2453 -739 b 2556 -643 2554 -739 2556 -739 l 2556 -635 l 2556 1586 l 2556 1594 b 2453 1690 2556 1690 2554 1690 l 172 1690 b 69 1594 71 1690 69 1690 z m 147 -685 l 461 -376 l 2128 -376 l 2481 -685 z m 122 -676 l 122 1624 l 378 1349 l 378 -268 z m 2503 -676 l 2206 -268 l 2206 1369 l 2503 1624 z m 136 1628 l 2472 1628 l 2081 1482 l 528 1482 z "},"":{"ha":2625,"x_min":0,"x_max":0,"o":"m 1919 -1 l 1697 236 l 1619 236 l 1399 -1 l 1479 0 l 1658 165 l 1838 0 z m 1065 1131 b 929 978 1064 1043 1018 978 b 801 1131 842 978 801 1046 b 929 1274 801 1215 842 1274 b 1065 1131 1015 1274 1065 1218 z m 1138 1082 b 929 1333 1138 1215 1089 1333 b 736 1131 821 1332 736 1251 b 925 918 736 1010 799 918 b 1051 964 983 921 1015 929 b 847 721 1047 872 932 761 l 889 683 b 1138 1082 996 724 1138 865 z m 932 -31 b 783 129 836 -31 783 28 b 932 288 783 256 867 288 b 1054 253 988 285 990 278 l 1054 321 b 929 344 1007 339 960 344 b 715 129 799 344 715 265 b 771 -31 717 63 735 8 b 922 -89 808 -67 860 -87 b 951 -143 940 -114 951 -132 b 901 -178 951 -165 929 -178 b 840 -160 865 -175 858 -175 l 840 -215 b 910 -224 858 -219 883 -224 b 976 -207 938 -222 960 -217 b 997 -157 989 -196 997 -181 b 967 -86 997 -149 997 -126 b 1054 -64 985 -82 1013 -82 l 1054 6 b 932 -31 1004 -24 981 -31 z m 456 1357 b 528 1428 456 1424 461 1428 l 2064 1428 b 2136 1357 2131 1428 2136 1424 l 2136 -256 b 2064 -326 2136 -322 2131 -326 l 528 -326 b 456 -256 461 -326 456 -322 z m 69 1586 l 69 -635 l 69 -643 b 172 -739 69 -739 71 -739 l 2453 -739 b 2556 -643 2554 -739 2556 -739 l 2556 -635 l 2556 1586 l 2556 1594 b 2453 1690 2556 1690 2554 1690 l 172 1690 b 69 1594 71 1690 69 1690 z m 147 -685 l 461 -376 l 2128 -376 l 2481 -685 z m 122 -676 l 122 1624 l 378 1349 l 378 -268 z m 2503 -676 l 2206 -268 l 2206 1369 l 2503 1624 z m 136 1628 l 2472 1628 l 2081 1482 l 528 1482 z "},"":{"ha":2625,"x_min":0,"x_max":0,"o":"m 1885 297 l 1708 508 l 1588 508 l 1793 297 z m 1225 1301 l 1225 1333 l 851 1333 l 851 1267 l 1140 1267 l 935 700 l 1007 700 z m 1113 353 l 996 492 l 915 492 l 1051 353 z m 1201 82 l 1201 88 b 1017 297 1201 207 1153 294 b 826 76 894 297 826 190 b 1029 -136 826 -49 903 -136 b 1188 -106 1086 -136 1138 -125 l 1188 -36 b 1033 -75 1122 -68 1113 -75 b 897 74 949 -75 897 -25 l 897 82 z m 1135 138 l 899 138 b 1017 239 907 193 947 239 b 1135 138 1088 239 1135 194 z m 456 1357 b 528 1428 456 1424 461 1428 l 2064 1428 b 2136 1357 2131 1428 2136 1424 l 2136 -256 b 2064 -326 2136 -322 2131 -326 l 528 -326 b 456 -256 461 -326 456 -322 z m 69 1586 l 69 -635 l 69 -643 b 172 -739 69 -739 71 -739 l 2453 -739 b 2556 -643 2554 -739 2556 -739 l 2556 -635 l 2556 1586 l 2556 1594 b 2453 1690 2556 1690 2554 1690 l 172 1690 b 69 1594 71 1690 69 1690 z m 147 -685 l 461 -376 l 2128 -376 l 2481 -685 z m 122 -676 l 122 1624 l 378 1349 l 378 -268 z m 2503 -676 l 2206 -268 l 2206 1369 l 2503 1624 z m 136 1628 l 2472 1628 l 2081 1482 l 528 1482 z "},"":{"ha":2625,"x_min":0,"x_max":0,"o":"m 1953 81 l 1953 142 b 1890 94 1926 118 1906 106 b 1822 79 1868 86 1844 79 b 1725 104 1797 79 1764 89 b 1617 132 1700 117 1638 132 b 1549 119 1592 132 1571 128 b 1478 76 1526 110 1503 97 l 1478 13 b 1540 61 1501 38 1522 54 b 1608 76 1563 72 1586 76 l 1611 76 b 1719 47 1669 76 1718 47 b 1814 24 1756 31 1786 24 b 1881 36 1836 25 1858 29 b 1953 81 1901 46 1928 60 z m 799 688 l 1167 688 l 1167 753 l 926 753 l 1100 997 b 1163 1153 1132 1047 1163 1086 b 967 1332 1163 1269 1076 1332 b 801 1283 906 1332 842 1306 l 801 1211 b 968 1268 853 1244 904 1268 b 1097 1149 1039 1268 1097 1224 b 1024 1001 1097 1099 1053 1040 b 799 688 1013 986 814 704 z m 1056 136 l 821 136 b 938 238 829 192 868 238 b 1056 136 1008 238 1056 193 z m 1122 81 l 1122 86 b 938 296 1122 206 1074 293 b 747 75 815 296 747 189 b 950 -137 747 -50 824 -137 b 1122 -83 1007 -137 1085 -119 l 1122 -14 b 954 -76 1076 -54 1033 -76 b 818 72 869 -76 818 -26 l 818 81 z m 1057 490 l 976 490 l 861 351 l 922 351 z m 456 1357 b 528 1428 456 1424 461 1428 l 2064 1428 b 2136 1357 2131 1428 2136 1424 l 2136 -256 b 2064 -326 2136 -322 2131 -326 l 528 -326 b 456 -256 461 -326 456 -322 z m 69 1586 l 69 -635 l 69 -643 b 172 -739 69 -739 71 -739 l 2453 -739 b 2556 -643 2554 -739 2556 -739 l 2556 -635 l 2556 1586 l 2556 1594 b 2453 1690 2556 1690 2554 1690 l 172 1690 b 69 1594 71 1690 69 1690 z m 147 -685 l 461 -376 l 2128 -376 l 2481 -685 z m 122 -676 l 122 1624 l 378 1349 l 378 -268 z m 2503 -676 l 2206 -268 l 2206 1369 l 2503 1624 z m 136 1628 l 2472 1628 l 2081 1482 l 528 1482 z "},"":{"ha":2625,"x_min":0,"x_max":0,"o":"m 1379 339 l 1264 478 l 1183 478 l 1318 339 z m 1461 -139 l 1461 274 l 1390 274 l 1390 40 b 1267 -90 1390 -37 1350 -90 b 1169 25 1193 -90 1169 -46 l 1169 274 l 1101 274 l 1101 24 b 1251 -150 1101 -74 1147 -150 b 1390 -86 1306 -150 1360 -122 l 1390 -139 z m 1614 846 b 1486 1017 1614 925 1576 1017 b 1354 846 1397 1015 1354 928 b 1486 675 1354 763 1394 675 b 1614 846 1578 675 1614 765 z m 1490 1333 l 1438 1333 l 1068 675 l 1121 675 z m 1203 1163 b 1072 1333 1203 1244 1163 1333 b 944 1163 982 1333 944 1244 b 1072 993 946 1075 976 993 b 1203 1163 1165 993 1203 1078 z m 1567 846 b 1486 722 1565 786 1547 722 b 1401 846 1421 722 1401 789 b 1486 971 1403 906 1418 971 b 1567 846 1547 971 1567 901 z m 1157 1163 b 1072 1036 1156 1101 1138 1036 b 990 1163 1011 1039 990 1104 b 1072 1286 990 1221 1014 1286 b 1157 1163 1136 1286 1157 1225 z m 456 1357 b 528 1428 456 1424 461 1428 l 2064 1428 b 2136 1357 2131 1428 2136 1424 l 2136 -256 b 2064 -326 2136 -322 2131 -326 l 528 -326 b 456 -256 461 -326 456 -322 z m 69 1586 l 69 -635 l 69 -643 b 172 -739 69 -739 71 -739 l 2453 -739 b 2556 -643 2554 -739 2556 -739 l 2556 -635 l 2556 1586 l 2556 1594 b 2453 1690 2556 1690 2554 1690 l 172 1690 b 69 1594 71 1690 69 1690 z m 147 -685 l 461 -376 l 2128 -376 l 2481 -685 z m 122 -676 l 122 1624 l 378 1349 l 378 -268 z m 2503 -676 l 2206 -268 l 2206 1369 l 2503 1624 z m 136 1628 l 2472 1628 l 2081 1482 l 528 1482 z "},"":{"ha":2625,"x_min":0,"x_max":0,"o":"m 892 1188 b 829 1121 857 1188 829 1158 b 892 1054 829 1083 857 1054 b 954 1121 926 1054 954 1083 b 892 1188 954 1158 926 1188 z m 1121 1188 b 1058 1121 1086 1188 1058 1158 b 1121 1054 1058 1083 1086 1054 b 1183 1121 1156 1054 1183 1083 b 1121 1188 1183 1158 1156 1188 z m 1204 139 l 1054 350 l 971 350 l 821 139 l 901 139 l 1013 272 l 1124 139 z m 456 1357 b 528 1428 456 1424 461 1428 l 2064 1428 b 2136 1357 2131 1428 2136 1424 l 2136 -256 b 2064 -326 2136 -322 2131 -326 l 528 -326 b 456 -256 461 -326 456 -322 z m 69 1586 l 69 -635 l 69 -643 b 172 -739 69 -739 71 -739 l 2453 -739 b 2556 -643 2554 -739 2556 -739 l 2556 -635 l 2556 1586 l 2556 1594 b 2453 1690 2556 1690 2554 1690 l 172 1690 b 69 1594 71 1690 69 1690 z m 147 -685 l 461 -376 l 2128 -376 l 2481 -685 z m 122 -676 l 122 1624 l 378 1349 l 378 -268 z m 2503 -676 l 2206 -268 l 2206 1369 l 2503 1624 z m 136 1628 l 2472 1628 l 2081 1482 l 528 1482 z "}}}
